SplineFontDB: 3.0
FontName: DOF-Afield-Italic
FullName: DOF-Afield-Italic
FamilyName: DOF-Afield
Weight: Italic
Copyright: Generated from MetaFont bitmap by mftrace 1.2.19, http://www.xs4all.nl/~hanwen/mftrace/ 
Version: 001.001
ItalicAngle: 0
UnderlinePosition: -102.4
UnderlineWidth: 51.2
Ascent: 819
Descent: 205
InvalidEm: 0
LayerCount: 2
Layer: 0 0 "Back" 1
Layer: 1 0 "Fore" 0
OS2Version: 0
OS2_WeightWidthSlopeOnly: 0
OS2_UseTypoMetrics: 0
CreationTime: 1521738728
ModificationTime: 1521738769
OS2TypoAscent: 0
OS2TypoAOffset: 1
OS2TypoDescent: 0
OS2TypoDOffset: 1
OS2TypoLinegap: 0
OS2WinAscent: 0
OS2WinAOffset: 1
OS2WinDescent: 0
OS2WinDOffset: 1
HheadAscent: 0
HheadAOffset: 1
HheadDescent: 0
HheadDOffset: 1
OS2Vendor: 'PfEd'
MarkAttachClasses: 1
DEI: 91125
Encoding: iso8859-15
UnicodeInterp: none
NameList: AGL For New Fonts
DisplaySize: -48
AntiAlias: 1
FitToEm: 0
WinInfo: 25 25 10
BeginPrivate: 3
lenIV 1 4
BlueValues 2 []
ForceBold 5 false
EndPrivate
BeginChars: 262 114

StartChar: exclam
Encoding: 33 33 1
Width: 412
Flags: HW
LayerCount: 2
Fore
SplineSet
361 818 m 0
 384 820 404 817 407 810 c 0
 409 808 403 778 345 461 c 0
 311 272 283 114 282 112 c 0
 279 101 256 90 227 85 c 0
 212 82 186 83 178 85 c 0
 172 87 169 91 169 95 c 0
 169 100 294 787 296 792 c 0
 298 797 302 801 312 805 c 0
 324 811 346 817 361 818 c 0
217 41 m 0
 241 44 261 41 266 33 c 0
 274 21 235 2 193 0 c 0
 174 -1 159 2 155 8 c 0
 148 20 179 37 217 41 c 0
EndSplineSet
EndChar

StartChar: quotedbl
Encoding: 34 34 2
Width: 404
Flags: HW
LayerCount: 2
Fore
SplineSet
278 818 m 0
 284 819 307 818 312 817 c 0
 318 815 324 811 324 807 c 0
 324 805 296 651 294 644 c 0
 292 635 273 624 245 618 c 0
 228 615 202 614 193 617 c 0
 185 620 181 624 181 628 c 0
 181 632 210 789 211 792 c 0
 215 802 238 812 264 816 c 0
 269 817 276 818 278 818 c 0
438 818 m 0
 451 820 472 818 478 814 c 0
 485 810 486 816 470 727 c 0
 462 683 455 645 455 643 c 0
 454 642 452 639 450 637 c 0
 432 620 371 610 348 620 c 0
 340 624 340 619 355 706 c 0
 363 748 370 785 371 788 c 0
 372 792 373 795 377 798 c 0
 387 807 410 815 438 818 c 0
EndSplineSet
EndChar

StartChar: numbersign
Encoding: 35 35 3
Width: 817
Flags: HW
LayerCount: 2
Fore
SplineSet
480 613 m 0
 486 614 510 613 515 612 c 0
 521 610 526 606 526 603 c 0
 526 600 525 598 468 499 c 2
 428 431 l 1
 536 430 l 2
 621 430 643 430 644 431 c 0
 644 432 665 468 690 511 c 0
 715 554 737 591 738 593 c 0
 745 599 763 606 783 611 c 0
 799 614 826 615 835 612 c 0
 842 610 847 606 847 602 c 0
 847 601 829 567 798 515 c 2
 749 431 l 1
 790 430 l 2
 827 429 832 429 836 428 c 0
 843 425 846 423 847 420 c 0
 850 411 830 398 798 391 c 0
 787 389 783 389 755 388 c 2
 724 388 l 1
 677 307 l 1
 631 227 l 1
 672 226 l 2
 716 225 719 225 726 219 c 0
 737 210 715 194 678 187 c 0
 669 185 663 185 637 184 c 2
 606 184 l 1
 560 104 l 2
 534 61 513 24 511 22 c 0
 504 15 484 6 462 2 c 0
 448 0 423 0 415 2 c 0
 408 4 402 9 402 12 c 0
 402 13 425 52 452 99 c 2
 501 184 l 1
 393 184 l 2
 308 184 286 184 285 183 c 0
 285 182 265 146 239 104 c 0
 214 61 192 25 190 23 c 0
 184 15 163 6 141 2 c 0
 128 0 102 0 94 2 c 0
 87 4 82 8 82 12 c 0
 82 13 103 51 131 99 c 2
 180 184 l 1
 139 184 l 2
 102 185 97 185 93 186 c 0
 86 189 83 192 82 195 c 0
 79 204 99 216 131 223 c 0
 142 225 146 225 174 226 c 2
 205 227 l 1
 252 307 l 1
 298 388 l 1
 257 388 l 2
 213 389 210 389 203 395 c 0
 199 398 199 403 204 408 c 0
 212 416 229 423 251 427 c 0
 260 429 266 429 292 430 c 2
 323 431 l 1
 369 510 l 2
 395 554 416 591 418 593 c 0
 420 595 426 598 431 601 c 0
 443 607 456 610 480 613 c 0
618 388 m 2
 511 388 l 1
 403 388 l 1
 401 384 l 2
 399 381 379 345 354 303 c 2
 310 227 l 1
 418 226 l 2
 476 226 525 226 525 227 c 0
 526 228 618 387 618 388 c 2
EndSplineSet
EndChar

StartChar: dollar
Encoding: 36 36 4
Width: 744
Flags: HW
LayerCount: 2
Fore
SplineSet
527 818 m 0
 543 820 559 818 567 815 c 0
 575 811 575 812 567 768 c 0
 563 746 560 729 560 728 c 1
 561 728 570 727 579 727 c 0
 639 724 684 714 720 698 c 0
 751 684 769 661 769 635 c 0
 769 623 762 615 745 608 c 0
 727 601 708 598 688 598 c 0
 673 598 664 599 658 603 c 0
 655 605 655 607 655 618 c 0
 655 628 654 630 651 636 c 0
 643 653 625 666 594 675 c 0
 582 678 553 683 552 682 c 2
 552 682 541 626 528 556 c 0
 516 487 506 430 506 428 c 0
 505 426 506 426 511 426 c 0
 536 423 579 414 599 408 c 0
 675 386 708 349 706 290 c 0
 705 265 699 249 688 226 c 0
 684 218 678 207 674 202 c 0
 665 190 645 169 632 160 c 0
 591 129 530 106 461 97 c 2
 444 95 l 1
 439 62 l 2
 435 44 432 28 431 27 c 0
 427 18 406 7 379 2 c 0
 366 0 340 0 332 2 c 0
 325 4 319 8 319 12 c 0
 319 13 323 31 327 53 c 2
 334 91 l 1
 329 91 l 2
 327 92 321 92 317 92 c 0
 313 92 302 93 291 94 c 0
 244 97 204 107 173 121 c 0
 142 135 124 158 124 183 c 0
 124 195 129 202 142 209 c 0
 160 217 182 221 206 221 c 0
 222 221 231 220 236 216 c 0
 238 213 238 213 238 202 c 0
 238 191 239 189 242 183 c 0
 252 161 282 146 327 138 c 0
 335 137 341 136 342 136 c 2
 342 136 353 192 365 262 c 0
 377 331 387 388 388 389 c 2
 388 392 l 1
 377 393 l 1
 299 405 257 418 227 438 c 0
 190 463 176 501 185 549 c 0
 188 571 201 598 214 616 c 0
 223 628 243 649 256 658 c 0
 297 689 359 712 428 722 c 0
 439 723 449 724 449 725 c 2
 449 725 452 740 455 758 c 0
 458 775 462 792 462 794 c 0
 467 802 487 812 512 816 c 0
 518 817 524 818 527 818 c 0
441 682 m 0
 441 685 442 685 427 683 c 0
 390 679 362 665 338 641 c 0
 312 615 298 583 296 546 c 0
 295 526 299 508 307 494 c 0
 311 487 324 475 332 469 c 0
 345 460 369 449 391 445 c 0
 396 443 397 443 397 445 c 0
 398 446 408 500 419 563 c 0
 431 626 440 681 441 682 c 0
523 367 m 0
 518 368 510 371 505 372 c 2
 496 375 l 1
 495 372 l 2
 495 370 485 316 473 251 c 2
 452 134 l 1
 457 135 l 2
 471 136 483 138 493 142 c 0
 531 153 561 180 578 217 c 0
 587 235 592 257 592 279 c 0
 592 305 584 323 570 338 c 0
 559 350 542 360 523 367 c 0
EndSplineSet
EndChar

StartChar: percent
Encoding: 37 37 5
Width: 898
Flags: HW
LayerCount: 2
Fore
SplineSet
364 823 m 0
 378 824 404 824 411 822 c 0
 427 816 423 806 404 796 c 0
 390 790 371 784 351 782 c 0
 344 782 342 781 337 778 c 0
 324 769 307 750 297 730 c 0
 286 706 276 667 272 627 c 0
 268 582 277 543 296 523 c 0
 304 514 322 504 326 506 c 0
 331 509 342 518 348 525 c 0
 372 553 386 587 396 636 c 0
 398 645 401 653 401 655 c 0
 406 661 420 669 437 674 c 0
 474 684 513 681 513 668 c 0
 513 660 505 627 498 607 c 0
 475 539 435 499 374 477 c 0
 320 459 259 457 220 473 c 0
 203 480 185 495 176 510 c 0
 156 544 153 591 166 658 c 0
 177 714 204 758 242 783 c 0
 274 805 317 819 364 823 c 0
952 818 m 0
 982 821 1003 814 998 804 c 0
 997 802 806 625 574 410 c 2
 154 18 l 1
 144 13 l 2
 127 6 108 1 86 0 c 0
 66 0 53 3 49 9 c 0
 48 12 48 12 50 16 c 0
 51 18 766 683 883 791 c 0
 896 803 903 807 918 811 c 0
 926 814 944 818 952 818 c 0
740 356 m 0
 754 357 771 357 779 356 c 0
 792 354 800 348 796 342 c 0
 791 331 764 320 733 316 c 0
 727 315 724 314 720 312 c 0
 691 293 667 253 655 203 c 0
 648 175 643 143 643 125 c 0
 643 78 662 47 696 38 c 1
 703 37 l 1
 709 40 l 2
 737 59 758 96 767 140 c 0
 768 146 770 153 770 154 c 0
 773 161 786 168 802 173 c 0
 836 184 880 183 883 171 c 0
 885 163 872 123 861 101 c 0
 852 82 842 69 828 55 c 0
 814 41 801 32 783 23 c 0
 749 6 713 -4 672 -5 c 0
 629 -6 599 0 575 14 c 0
 539 34 524 76 531 132 c 0
 539 204 565 264 602 300 c 0
 626 322 656 338 693 347 c 0
 709 352 727 355 740 356 c 0
EndSplineSet
EndChar

StartChar: ampersand
Encoding: 38 38 6
Width: 744
Flags: HW
LayerCount: 2
Fore
SplineSet
511 823 m 0
 526 824 573 823 587 822 c 0
 618 817 637 812 659 802 c 0
 701 780 725 744 731 693 c 0
 734 664 730 626 721 599 c 0
 706 553 676 517 626 484 c 0
 608 472 600 467 577 457 c 0
 547 442 521 431 460 407 c 0
 438 399 420 392 420 391 c 2
 420 391 440 355 453 332 c 0
 492 264 539 196 583 144 c 0
 589 138 595 130 598 128 c 2
 602 123 l 1
 608 125 l 2
 637 136 680 139 692 130 c 0
 697 126 697 124 694 114 c 0
 690 101 683 89 672 78 c 2
 662 68 l 1
 672 60 l 2
 685 51 700 44 711 40 c 0
 721 38 726 34 726 30 c 0
 726 26 718 18 709 13 c 0
 693 6 673 1 650 0 c 0
 630 -1 615 3 589 16 c 2
 574 24 l 1
 560 19 l 2
 513 6 468 -1 408 -4 c 0
 380 -5 335 -5 318 -4 c 0
 245 1 195 20 163 55 c 0
 145 74 132 100 126 133 c 0
 124 146 124 183 126 199 c 0
 134 249 152 285 189 319 c 0
 211 339 236 358 275 377 c 2
 298 389 l 1
 292 401 l 2
 253 485 234 561 240 602 c 0
 243 617 249 641 254 655 c 0
 267 691 287 722 312 746 c 0
 357 789 426 816 511 823 c 0
514 781 m 0
 495 783 475 782 462 777 c 0
 444 771 421 754 406 737 c 0
 391 720 376 694 367 671 c 0
 363 658 356 632 353 618 c 0
 349 587 358 538 380 481 c 0
 389 457 400 431 402 431 c 2
 402 431 412 434 422 438 c 0
 481 461 518 481 544 499 c 0
 590 534 611 573 617 633 c 0
 621 674 614 709 597 735 c 0
 580 761 550 777 514 781 c 0
341 307 m 0
 335 318 327 332 325 336 c 2
 321 343 l 1
 310 335 l 2
 304 331 295 322 289 315 c 0
 260 287 247 259 240 216 c 0
 238 199 238 165 240 151 c 0
 250 95 284 58 339 44 c 0
 357 39 369 38 396 37 c 0
 435 36 476 39 502 44 c 0
 512 46 535 53 535 54 c 2
 512 77 l 2
 481 108 459 134 429 173 c 0
 397 216 368 260 341 307 c 0
EndSplineSet
EndChar

StartChar: parenleft
Encoding: 40 40 7
Width: 290
Flags: HW
LayerCount: 2
Fore
SplineSet
346 859 m 0
 357 860 381 860 388 858 c 0
 399 854 401 848 394 841 c 0
 390 836 378 829 368 826 c 0
 360 823 356 821 348 810 c 0
 338 795 328 775 315 739 c 0
 281 653 260 570 232 418 c 0
 207 282 200 213 198 137 c 0
 198 102 199 65 201 46 c 0
 204 27 209 12 215 5 c 0
 218 1 219 1 225 0 c 0
 238 -2 246 -8 242 -14 c 0
 238 -23 220 -32 194 -38 c 0
 183 -40 178 -40 163 -40 c 0
 140 -40 132 -39 120 -33 c 0
 106 -26 97 -15 92 7 c 0
 86 29 83 68 84 120 c 0
 86 197 94 265 119 401 c 0
 147 553 168 637 202 723 c 0
 222 776 235 801 253 819 c 0
 272 841 304 854 346 859 c 0
EndSplineSet
EndChar

StartChar: parenright
Encoding: 41 41 8
Width: 290
Flags: HW
LayerCount: 2
Fore
SplineSet
263 859 m 0
 270 860 297 859 303 858 c 0
 319 854 333 846 339 834 c 0
 347 822 352 802 354 775 c 0
 356 753 356 675 354 647 c 0
 348 578 341 524 321 416 c 0
 293 263 273 181 239 95 c 0
 223 54 215 37 202 18 c 0
 182 -14 151 -31 103 -39 c 0
 89 -41 60 -41 53 -39 c 0
 45 -36 41 -33 41 -29 c 0
 41 -22 57 -11 75 -6 c 0
 81 -4 82 -3 86 2 c 0
 98 16 111 42 127 84 c 0
 159 167 180 249 207 399 c 0
 227 507 235 562 241 631 c 0
 243 660 243 735 241 758 c 0
 239 780 235 795 230 804 c 0
 225 815 222 818 213 819 c 0
 205 821 200 824 198 827 c 0
 197 830 197 831 199 835 c 0
 204 845 233 856 263 859 c 0
EndSplineSet
EndChar

StartChar: asterisk
Encoding: 42 42 9
Width: 655
Flags: HW
LayerCount: 2
Fore
SplineSet
483 818 m 0
 496 820 517 818 523 814 c 0
 530 810 530 811 524 774 c 0
 520 756 518 740 517 739 c 2
 517 739 521 740 525 742 c 0
 535 748 548 752 562 755 c 0
 570 757 577 757 591 757 c 0
 607 757 609 757 614 755 c 0
 620 753 625 748 625 745 c 0
 625 743 623 740 620 738 c 0
 615 733 606 728 565 708 c 0
 528 689 517 682 518 681 c 0
 519 681 537 668 559 654 c 0
 581 641 599 629 600 628 c 0
 603 625 602 620 598 616 c 0
 588 605 563 597 534 594 c 0
 518 593 504 594 494 598 c 0
 493 599 491 596 488 581 c 0
 486 571 484 560 484 558 c 0
 480 550 460 541 436 536 c 0
 404 530 375 533 372 543 c 0
 372 544 374 559 378 579 c 0
 381 597 384 612 384 612 c 2
 383 612 380 610 375 608 c 0
 347 594 302 589 284 597 c 0
 276 601 275 607 282 614 c 0
 285 616 306 628 335 643 c 0
 363 657 384 669 384 670 c 1
 383 670 366 681 343 695 c 0
 321 709 302 722 301 723 c 0
 294 730 306 742 330 750 c 0
 357 759 391 761 406 754 c 2
 410 752 l 1
 413 772 l 2
 417 792 417 793 421 797 c 0
 430 806 454 815 483 818 c 0
EndSplineSet
EndChar

StartChar: plus
Encoding: 43 43 10
Width: 817
Flags: HW
LayerCount: 2
Fore
SplineSet
526 613 m 0
 550 615 568 612 572 605 c 0
 573 602 571 586 549 467 c 0
 536 392 524 331 524 331 c 2
 524 329 540 329 665 329 c 0
 756 329 807 329 811 328 c 0
 824 326 831 319 827 313 c 0
 823 304 806 296 780 290 c 2
 768 288 l 1
 642 287 l 1
 516 287 l 1
 515 282 l 2
 515 279 504 222 492 155 c 0
 481 87 469 31 468 28 c 0
 466 23 462 18 453 14 c 0
 419 -2 363 -5 356 9 c 0
 355 11 360 31 380 147 c 0
 393 221 405 284 406 285 c 2
 406 287 l 1
 261 287 l 2
 127 287 117 288 112 289 c 0
 100 293 97 299 104 307 c 0
 112 314 129 321 152 326 c 0
 161 328 164 328 287 329 c 2
 413 330 l 1
 436 458 l 2
 451 542 460 587 462 589 c 0
 467 599 498 611 526 613 c 0
EndSplineSet
EndChar

StartChar: comma
Encoding: 44 44 11
Width: 250
Flags: HW
LayerCount: 2
Fore
SplineSet
139 41 m 0
 163 43 181 40 185 33 c 0
 186 30 186 26 180 3 c 0
 169 -41 147 -90 120 -129 c 0
 113 -139 108 -143 100 -147 c 0
 67 -163 9 -167 3 -152 c 0
 2 -149 2 -148 9 -138 c 0
 37 -97 57 -53 68 -8 c 0
 74 18 74 16 78 20 c 0
 87 29 115 39 139 41 c 0
EndSplineSet
EndChar

StartChar: hyphen
Encoding: 45 45 12
Width: 817
Flags: HW
LayerCount: 2
Fore
SplineSet
167 328 m 0
 177 329 805 329 811 328 c 0
 824 326 831 319 827 313 c 0
 823 304 804 295 777 290 c 2
 766 288 l 1
 442 288 l 2
 136 288 118 288 113 289 c 0
 105 292 100 295 100 299 c 0
 100 310 134 325 167 328 c 0
EndSplineSet
EndChar

StartChar: period
Encoding: 46 46 13
Width: 250
Flags: HW
LayerCount: 2
Fore
SplineSet
140 49 m 0
 151 50 175 49 182 48 c 0
 193 45 200 40 199 34 c 0
 197 29 188 22 177 16 c 0
 155 6 130 1 102 1 c 0
 78 1 68 3 63 10 c 0
 60 14 62 18 68 24 c 0
 79 35 108 45 140 49 c 0
EndSplineSet
EndChar

StartChar: slash
Encoding: 47 47 14
Width: 574
Flags: HW
LayerCount: 2
Fore
SplineSet
629 818 m 0
 653 820 671 817 675 810 c 0
 676 807 676 807 674 803 c 0
 668 792 160 26 157 23 c 0
 150 15 130 6 108 3 c 0
 74 -3 44 2 49 14 c 0
 49 15 166 193 308 407 c 0
 513 718 566 798 569 800 c 0
 580 808 607 817 629 818 c 0
EndSplineSet
EndChar

StartChar: zero
Encoding: 48 48 15
Width: 744
Flags: HW
LayerCount: 2
Fore
SplineSet
521 823 m 0
 529 824 551 824 557 823 c 0
 565 822 572 818 574 815 c 0
 575 812 575 812 574 809 c 0
 567 797 536 784 499 782 c 0
 488 781 483 781 476 778 c 0
 448 768 415 744 391 715 c 0
 355 672 325 616 305 554 c 0
 283 488 264 392 257 312 c 0
 255 289 255 234 257 216 c 0
 267 130 297 77 350 50 c 0
 365 42 385 37 399 37 c 0
 407 37 419 41 432 47 c 0
 479 72 520 116 555 183 c 0
 586 242 609 319 625 418 c 0
 634 472 637 522 633 559 c 0
 630 585 621 616 612 633 c 0
 600 659 580 679 556 690 c 0
 544 696 533 698 518 699 c 0
 503 700 495 703 490 707 c 0
 479 716 502 731 539 738 c 0
 568 743 608 741 638 731 c 0
 667 721 694 703 711 680 c 0
 728 656 741 617 746 577 c 0
 750 540 747 488 738 434 c 0
 714 291 676 192 616 117 c 0
 563 50 482 8 387 -3 c 0
 370 -5 328 -5 314 -3 c 0
 270 4 236 19 208 46 c 0
 181 71 164 102 153 148 c 0
 145 180 142 204 142 248 c 0
 142 291 145 323 154 377 c 0
 177 513 209 606 261 680 c 0
 298 733 343 770 401 796 c 0
 437 811 473 819 521 823 c 0
EndSplineSet
EndChar

StartChar: one
Encoding: 49 49 16
Width: 516
Flags: HW
LayerCount: 2
Fore
SplineSet
522 818 m 0
 532 819 555 819 561 817 c 0
 567 815 572 810 572 807 c 0
 572 806 542 635 504 428 c 0
 466 220 435 49 434 46 c 2
 434 42 l 1
 481 42 l 2
 529 42 538 41 546 38 c 0
 551 35 554 31 552 27 c 0
 547 18 527 7 499 2 c 0
 490 1 479 1 352 1 c 0
 223 1 214 1 209 2 c 0
 202 4 197 8 197 11 c 0
 197 21 217 33 248 39 c 0
 256 41 263 41 291 42 c 2
 324 42 l 1
 383 370 l 2
 416 550 442 698 442 698 c 2
 441 698 393 660 335 613 c 0
 276 567 225 527 222 525 c 0
 207 517 185 512 162 511 c 0
 142 511 131 512 126 518 c 0
 123 520 123 521 123 524 c 0
 124 525 125 528 126 529 c 0
 131 534 468 801 474 804 c 0
 485 810 503 815 522 818 c 0
EndSplineSet
EndChar

StartChar: two
Encoding: 50 50 17
Width: 744
Flags: HW
LayerCount: 2
Fore
SplineSet
503 823 m 0
 516 824 580 823 594 822 c 0
 693 811 751 769 766 698 c 0
 773 665 771 627 760 590 c 0
 741 518 691 455 606 394 c 0
 574 371 545 352 483 314 c 0
 425 279 407 268 383 252 c 0
 302 198 255 150 228 95 c 0
 221 82 212 56 210 45 c 2
 209 42 l 1
 423 42 l 2
 649 42 644 42 653 38 c 0
 655 37 657 35 658 33 c 0
 664 24 643 10 608 3 c 2
 599 1 l 1
 358 0 l 2
 192 0 116 0 112 1 c 0
 103 2 95 6 93 9 c 0
 92 11 92 14 94 22 c 0
 103 63 124 105 155 143 c 0
 166 156 196 188 213 202 c 0
 252 235 294 264 392 323 c 0
 492 384 532 413 571 451 c 0
 619 500 645 549 654 611 c 0
 656 624 656 660 654 673 c 0
 646 717 621 750 580 767 c 0
 552 779 523 783 477 782 c 0
 430 781 407 776 382 764 c 0
 356 751 336 726 328 699 c 0
 325 687 322 684 309 678 c 0
 290 669 266 664 242 665 c 0
 227 666 219 668 215 672 c 0
 212 676 213 678 217 690 c 0
 224 713 240 736 262 753 c 0
 308 791 389 816 480 822 c 0
 489 823 500 823 503 823 c 0
EndSplineSet
EndChar

StartChar: three
Encoding: 51 51 18
Width: 744
Flags: HW
LayerCount: 2
Fore
SplineSet
474 824 m 0
 494 826 566 824 592 822 c 0
 643 817 684 804 715 784 c 0
 747 762 765 735 773 695 c 0
 776 680 776 647 774 632 c 0
 764 574 736 524 694 488 c 0
 670 469 632 447 597 436 c 0
 595 435 596 434 603 432 c 0
 664 407 699 365 705 300 c 0
 710 253 698 197 673 150 c 0
 648 102 610 66 559 40 c 0
 503 11 442 -2 360 -5 c 0
 277 -8 224 -3 165 14 c 0
 123 25 104 39 102 62 c 0
 101 72 106 78 120 85 c 0
 139 95 174 101 194 98 c 0
 212 96 216 93 216 83 c 0
 216 68 225 59 256 51 c 0
 287 42 317 37 349 36 c 0
 372 36 424 37 436 39 c 0
 503 50 559 108 581 188 c 0
 604 267 591 336 549 372 c 0
 520 397 478 410 429 410 c 0
 410 410 397 413 394 419 c 0
 393 422 393 422 394 425 c 0
 399 434 417 443 442 449 c 0
 452 451 461 451 479 452 c 0
 519 454 536 457 560 469 c 0
 619 498 660 564 663 639 c 0
 664 682 651 718 626 742 c 0
 612 754 592 765 573 771 c 0
 550 778 536 781 494 782 c 0
 438 784 406 782 367 772 c 0
 347 767 341 763 337 751 c 0
 334 740 318 730 290 724 c 0
 259 718 229 720 224 729 c 0
 222 733 223 737 228 746 c 0
 237 764 263 782 303 795 c 0
 350 810 411 820 474 824 c 0
EndSplineSet
EndChar

StartChar: four
Encoding: 52 52 19
Width: 677
Flags: HW
LayerCount: 2
Fore
SplineSet
411 818 m 0
 421 819 444 819 450 817 c 0
 457 814 461 811 461 807 c 0
 460 804 228 251 226 248 c 0
 226 247 258 247 298 247 c 2
 369 248 l 1
 399 417 l 2
 416 510 431 587 432 589 c 0
 436 597 455 606 480 611 c 0
 496 614 522 615 531 612 c 0
 539 609 544 606 544 602 c 0
 544 600 529 519 512 423 c 2
 479 247 l 1
 565 247 l 2
 637 247 653 247 658 246 c 0
 666 244 672 241 674 238 c 0
 675 235 675 234 674 230 c 0
 669 222 649 213 622 207 c 0
 614 206 605 206 543 205 c 2
 472 205 l 1
 472 203 l 2
 471 201 464 162 456 116 c 0
 448 69 439 29 439 28 c 0
 435 18 413 7 386 2 c 0
 373 0 347 0 339 2 c 0
 332 4 327 8 327 12 c 0
 327 14 360 200 361 203 c 0
 361 205 355 205 243 205 c 0
 131 205 124 206 119 207 c 0
 113 209 108 214 108 216 c 0
 108 217 161 348 228 506 c 0
 323 733 350 795 352 798 c 0
 360 806 385 815 411 818 c 0
EndSplineSet
EndChar

StartChar: five
Encoding: 53 53 20
Width: 744
Flags: HW
LayerCount: 2
Fore
SplineSet
301 818 m 0
 302 819 411 819 541 819 c 0
 792 819 786 819 795 815 c 0
 797 814 799 812 800 810 c 0
 806 801 785 787 750 780 c 2
 740 778 l 1
 541 777 l 1
 342 777 l 1
 342 774 l 2
 341 773 334 733 326 687 c 0
 318 640 310 601 310 599 c 0
 309 597 310 597 321 600 c 0
 371 613 429 620 495 620 c 0
 552 620 589 612 626 595 c 0
 682 568 713 522 724 449 c 0
 726 431 726 382 723 357 c 0
 706 211 651 108 561 51 c 0
 539 39 506 22 480 15 c 0
 435 1 402 -4 354 -5 c 0
 260 -7 185 6 143 32 c 0
 132 38 117 52 113 61 c 0
 108 73 106 86 108 95 c 0
 111 106 138 119 169 123 c 0
 182 125 204 124 211 121 c 0
 219 119 220 116 220 104 c 0
 220 94 221 93 224 87 c 0
 231 71 246 59 275 51 c 0
 303 41 335 38 383 38 c 2
 417 38 l 1
 426 40 l 2
 476 54 522 96 557 158 c 0
 582 204 601 269 609 341 c 0
 612 364 612 410 610 427 c 0
 605 467 593 498 574 523 c 0
 554 549 525 566 487 574 c 0
 477 576 474 577 442 577 c 0
 389 577 361 573 335 563 c 0
 316 555 299 538 296 522 c 0
 294 514 290 510 278 504 c 0
 260 496 237 490 215 490 c 0
 197 490 185 494 182 500 c 0
 181 502 185 525 208 647 c 2
 234 793 l 1
 239 797 l 2
 248 806 272 815 301 818 c 0
EndSplineSet
EndChar

StartChar: six
Encoding: 54 54 21
Width: 744
Flags: HW
LayerCount: 2
Fore
SplineSet
482 823 m 0
 492 824 563 823 580 822 c 0
 631 817 672 808 702 793 c 0
 727 781 744 762 749 742 c 0
 753 727 750 716 742 710 c 0
 719 694 665 685 643 694 c 0
 637 697 636 701 637 710 c 0
 638 723 633 734 622 745 c 0
 608 759 580 771 545 776 c 0
 525 780 511 781 483 782 c 2
 462 782 l 1
 456 779 l 2
 432 765 406 738 384 706 c 0
 371 684 353 655 340 625 c 0
 331 603 321 579 321 578 c 1
 322 578 324 579 327 580 c 0
 329 582 336 585 341 587 c 0
 419 620 512 628 584 610 c 0
 666 590 711 538 724 449 c 0
 726 431 726 382 723 357 c 0
 706 211 651 108 561 51 c 0
 548 44 520 30 504 24 c 0
 430 -5 340 -13 272 4 c 0
 190 24 145 77 132 166 c 0
 130 184 130 232 133 257 c 0
 138 298 156 386 169 440 c 0
 204 576 255 685 313 745 c 0
 357 791 412 817 482 823 c 0
487 574 m 0
 475 576 449 578 440 577 c 0
 425 575 404 565 387 555 c 0
 342 527 303 475 279 410 c 0
 265 371 253 321 247 273 c 0
 244 250 244 204 246 187 c 0
 251 147 263 116 282 91 c 0
 298 71 323 53 350 45 c 0
 367 39 378 38 398 38 c 0
 414 38 417 38 426 40 c 0
 476 54 522 96 557 158 c 0
 582 204 601 269 609 341 c 0
 612 364 612 410 610 427 c 0
 605 467 593 498 574 523 c 0
 554 549 523 567 487 574 c 0
EndSplineSet
EndChar

StartChar: seven
Encoding: 55 55 22
Width: 655
Flags: HW
LayerCount: 2
Fore
SplineSet
256 818 m 0
 266 819 732 819 738 818 c 0
 746 817 754 813 756 810 c 0
 757 807 757 807 754 801 c 0
 739 774 295 25 293 22 c 0
 286 15 268 8 248 3 c 0
 232 0 206 -1 197 2 c 0
 190 4 184 8 184 12 c 0
 184 13 276 168 409 394 c 0
 533 603 633 775 634 776 c 0
 634 777 595 777 423 777 c 0
 246 777 211 777 206 778 c 0
 190 782 186 790 195 798 c 0
 204 807 232 816 256 818 c 0
EndSplineSet
EndChar

StartChar: eight
Encoding: 56 56 23
Width: 744
Flags: HW
LayerCount: 2
Fore
SplineSet
505 823 m 0
 522 824 558 824 575 823 c 0
 645 818 695 801 728 769 c 0
 745 751 756 733 763 706 c 0
 778 645 758 563 713 509 c 0
 686 477 645 450 600 434 c 2
 592 431 l 1
 600 428 l 2
 612 423 631 414 642 407 c 0
 654 399 672 381 679 371 c 0
 690 354 698 332 703 307 c 0
 705 295 705 258 703 245 c 0
 689 150 642 81 562 41 c 0
 516 17 461 3 398 -3 c 0
 379 -5 322 -5 305 -3 c 0
 239 3 193 21 162 52 c 0
 156 58 148 67 145 71 c 0
 116 114 112 171 129 238 c 0
 134 256 139 269 148 288 c 0
 173 338 209 373 262 400 c 0
 276 407 304 420 307 420 c 0
 308 420 304 422 299 424 c 0
 274 433 256 445 240 460 c 0
 222 478 211 497 205 525 c 0
 196 560 200 608 214 648 c 0
 227 683 246 713 271 736 c 0
 322 785 405 816 505 823 c 0
520 781 m 0
 496 783 467 782 451 779 c 0
 390 767 339 713 321 640 c 0
 316 618 314 607 314 584 c 0
 314 561 316 551 321 536 c 0
 338 478 392 446 474 446 c 0
 507 446 528 451 551 462 c 0
 592 481 625 521 642 572 c 0
 653 605 656 639 653 669 c 0
 644 736 597 774 520 781 c 0
465 402 m 0
 452 403 413 404 400 403 c 0
 340 397 290 360 259 298 c 0
 236 250 227 187 237 143 c 0
 249 85 290 50 360 39 c 0
 378 37 422 37 438 40 c 0
 511 53 569 118 586 207 c 0
 591 229 591 236 591 259 c 0
 591 289 588 308 579 328 c 0
 560 369 520 394 465 402 c 0
EndSplineSet
EndChar

StartChar: nine
Encoding: 57 57 24
Width: 744
Flags: HW
LayerCount: 2
Fore
SplineSet
511 823 m 0
 526 824 553 824 569 823 c 0
 646 817 704 786 733 736 c 0
 744 718 751 700 756 677 c 0
 760 659 762 646 763 623 c 0
 764 584 760 550 748 487 c 0
 729 385 708 310 681 243 c 0
 633 125 580 57 511 23 c 0
 494 15 480 9 463 4 c 0
 435 -3 414 -5 380 -5 c 0
 287 -5 217 8 177 35 c 0
 167 41 155 53 151 61 c 0
 144 73 141 88 143 99 c 0
 147 114 184 128 223 128 c 0
 241 129 249 127 254 122 c 0
 257 119 257 119 256 111 c 0
 255 97 259 85 271 74 c 0
 282 63 301 54 327 47 c 0
 351 41 373 38 410 37 c 2
 432 37 l 1
 438 40 l 2
 467 58 498 94 524 138 c 0
 533 154 546 179 553 196 c 0
 560 211 572 240 572 241 c 0
 572 242 568 240 563 238 c 0
 531 223 495 212 456 206 c 0
 433 202 422 201 398 200 c 0
 336 199 284 211 245 237 c 0
 203 266 178 309 169 371 c 0
 167 387 167 435 169 457 c 0
 173 487 180 523 187 553 c 0
 213 650 262 724 332 767 c 0
 380 798 444 818 511 823 c 0
524 779 m 0
 513 781 486 782 477 781 c 0
 455 778 430 765 408 749 c 0
 366 716 331 663 309 598 c 0
 298 563 288 515 283 473 c 0
 281 454 281 407 283 392 c 0
 288 352 299 321 318 296 c 0
 346 261 395 240 442 242 c 0
 493 245 549 285 588 351 c 0
 619 402 638 470 647 554 c 0
 649 570 649 619 647 632 c 0
 641 679 624 718 598 743 c 0
 579 760 553 773 524 779 c 0
EndSplineSet
EndChar

StartChar: colon
Encoding: 58 58 25
Width: 250
Flags: HW
LayerCount: 2
Fore
SplineSet
243 613 m 0
 277 617 303 610 301 598 c 0
 299 594 291 587 282 582 c 0
 243 563 178 558 167 574 c 0
 164 578 165 583 171 588 c 0
 182 599 213 610 243 613 c 0
140 49 m 0
 151 50 175 49 182 48 c 0
 193 45 200 40 199 34 c 0
 197 29 188 22 177 16 c 0
 155 6 130 1 102 1 c 0
 78 1 68 3 63 10 c 0
 60 14 62 18 68 24 c 0
 79 35 108 45 140 49 c 0
EndSplineSet
EndChar

StartChar: semicolon
Encoding: 59 59 26
Width: 250
Flags: HW
LayerCount: 2
Fore
SplineSet
243 617 m 0
 277 621 303 614 301 602 c 0
 299 598 291 591 282 586 c 0
 243 567 178 563 167 579 c 0
 164 583 165 587 171 592 c 0
 182 603 213 614 243 617 c 0
139 41 m 0
 163 43 181 40 185 33 c 0
 186 30 186 26 180 3 c 0
 169 -41 147 -90 120 -129 c 0
 113 -139 108 -143 100 -147 c 0
 67 -163 9 -167 3 -152 c 0
 2 -149 2 -148 9 -138 c 0
 37 -97 57 -53 68 -8 c 0
 74 18 74 16 78 20 c 0
 87 29 115 39 139 41 c 0
EndSplineSet
EndChar

StartChar: less
Encoding: 60 60 27
Width: 817
Flags: HW
LayerCount: 2
Fore
SplineSet
830 613 m 0
 840 614 863 614 869 612 c 0
 876 609 881 606 881 602 c 0
 881 598 875 593 868 589 c 0
 866 587 721 525 547 450 c 0
 373 376 229 314 229 313 c 1
 228 313 343 254 719 63 c 0
 779 32 779 33 776 27 c 0
 771 18 750 7 723 2 c 0
 709 0 689 -1 680 1 c 0
 674 3 633 23 389 147 c 0
 232 226 103 292 102 294 c 0
 101 295 100 297 100 298 c 0
 100 302 107 309 114 312 c 0
 122 316 788 602 798 606 c 0
 808 609 818 611 830 613 c 0
EndSplineSet
EndChar

StartChar: equal
Encoding: 61 61 28
Width: 817
Flags: HW
LayerCount: 2
Fore
SplineSet
185 430 m 0
 195 431 823 431 829 430 c 0
 837 429 845 425 847 422 c 0
 848 419 848 419 847 416 c 0
 842 407 822 397 794 391 c 0
 786 390 767 390 465 389 c 0
 235 389 142 389 137 390 c 0
 108 395 115 412 152 423 c 0
 159 426 177 430 185 430 c 0
144 225 m 0
 148 225 296 226 472 226 c 0
 776 226 794 225 799 224 c 0
 811 220 813 214 806 207 c 0
 798 199 782 191 759 187 c 2
 749 185 l 1
 428 184 l 2
 209 184 104 184 100 185 c 0
 86 187 79 194 83 200 c 0
 88 211 114 221 144 225 c 0
EndSplineSet
EndChar

StartChar: greater
Encoding: 62 62 29
Width: 817
Flags: HW
LayerCount: 2
Fore
SplineSet
215 613 m 0
 226 614 242 614 249 612 c 0
 255 611 303 588 540 467 c 0
 697 388 825 323 826 321 c 0
 831 317 828 309 818 303 c 0
 810 298 136 9 126 7 c 0
 92 -3 55 -2 49 9 c 0
 48 12 48 12 50 16 c 0
 51 18 54 22 57 24 c 0
 60 27 181 78 381 164 c 0
 556 239 699 300 699 301 c 1
 700 301 595 356 221 545 c 0
 161 576 155 580 153 582 c 0
 152 585 152 586 154 588 c 0
 159 599 185 609 215 613 c 0
EndSplineSet
EndChar

StartChar: question
Encoding: 63 63 30
Width: 655
Flags: HW
LayerCount: 2
Fore
SplineSet
463 823 m 0
 480 824 531 823 547 822 c 0
 607 814 648 798 679 768 c 0
 699 746 712 722 719 691 c 0
 732 628 713 539 673 479 c 0
 647 440 611 411 563 387 c 0
 540 376 526 370 502 364 c 0
 488 359 464 353 452 351 c 2
 446 351 l 1
 426 233 l 2
 414 168 403 115 403 113 c 0
 401 107 397 101 386 96 c 0
 368 88 347 83 324 83 c 0
 305 83 293 86 291 91 c 0
 290 93 294 118 314 228 c 2
 338 364 l 1
 342 368 l 2
 347 373 362 380 374 383 c 0
 392 389 400 389 429 389 c 2
 456 390 l 1
 465 393 l 2
 482 399 504 412 520 425 c 0
 561 457 590 508 602 570 c 0
 607 595 608 605 608 630 c 0
 608 655 608 663 603 681 c 0
 589 736 546 771 481 780 c 0
 467 782 429 782 417 780 c 0
 343 766 284 696 265 599 c 0
 264 591 261 588 255 584 c 0
 230 568 177 560 158 569 c 0
 151 573 151 576 154 590 c 0
 164 643 189 691 222 727 c 0
 275 781 358 815 463 823 c 0
338 41 m 0
 362 44 382 41 387 33 c 0
 395 21 355 2 313 0 c 0
 294 -1 279 2 275 8 c 0
 268 20 300 37 338 41 c 0
EndSplineSet
EndChar

StartChar: at
Encoding: 64 64 31
Width: 987
Flags: HW
LayerCount: 2
Fore
SplineSet
612 761 m 0
 630 762 670 762 689 761 c 0
 755 757 805 745 850 722 c 0
 926 684 968 620 980 526 c 0
 982 507 982 455 980 435 c 0
 975 395 969 365 961 342 c 0
 933 274 882 232 804 218 c 0
 771 211 733 212 716 219 c 0
 713 220 711 221 711 220 c 0
 710 217 698 198 693 191 c 0
 680 172 657 151 634 139 c 0
 585 112 505 101 459 112 c 0
 435 118 420 126 404 142 c 0
 392 154 386 164 381 178 c 0
 359 229 360 293 380 392 c 0
 399 488 433 558 481 598 c 0
 531 640 607 658 676 644 c 0
 704 639 724 628 740 614 c 0
 765 590 775 554 771 510 c 0
 770 504 762 453 752 398 c 0
 742 342 733 296 733 296 c 2
 733 295 734 295 740 296 c 0
 766 300 791 298 797 290 c 0
 799 288 799 287 798 280 c 0
 798 275 798 271 799 268 c 0
 800 265 802 263 802 263 c 2
 803 263 812 272 818 280 c 0
 846 312 858 348 866 419 c 0
 868 439 868 490 866 509 c 0
 856 589 823 644 765 680 c 0
 745 693 713 706 687 711 c 0
 643 721 593 723 548 716 c 0
 460 703 381 646 329 560 c 0
 292 499 268 423 259 335 c 0
 257 318 257 268 259 253 c 0
 265 197 282 154 313 117 c 0
 357 65 431 32 494 36 c 0
 529 38 543 36 550 30 c 0
 554 27 554 22 549 17 c 0
 538 6 513 -2 479 -5 c 0
 463 -7 412 -7 398 -5 c 0
 344 1 297 16 259 42 c 0
 191 86 154 149 145 236 c 0
 143 251 143 301 145 318 c 0
 152 393 170 457 200 517 c 0
 222 561 245 594 278 628 c 0
 302 651 320 666 348 683 c 0
 418 727 510 754 612 761 c 0
607 613 m 0
 594 616 592 615 583 611 c 0
 554 596 529 565 506 519 c 0
 491 486 479 450 469 398 c 0
 452 310 452 250 467 205 c 0
 475 183 485 168 499 158 c 0
 522 140 541 137 565 148 c 0
 597 164 624 204 636 252 c 0
 639 265 679 484 680 497 c 0
 682 511 681 535 678 546 c 0
 670 584 645 607 607 613 c 0
EndSplineSet
EndChar

StartChar: A
Encoding: 65 65 32
Width: 780
Flags: HW
LayerCount: 2
Fore
SplineSet
505 818 m 0
 507 819 532 819 562 819 c 0
 620 818 622 818 629 812 c 2
 632 809 l 1
 675 420 l 2
 699 206 718 30 718 29 c 0
 718 26 708 18 700 13 c 0
 668 -2 614 -5 606 8 c 0
 605 10 600 51 588 166 c 0
 578 251 570 322 569 324 c 2
 569 327 l 1
 447 327 l 1
 325 327 l 1
 254 176 l 2
 192 44 181 25 178 22 c 0
 155 2 78 -8 71 10 c 0
 70 12 79 31 253 398 c 0
 353 610 436 787 438 791 c 0
 441 796 443 798 447 801 c 0
 458 809 485 816 505 818 c 0
544 557 m 0
 534 658 524 741 523 742 c 0
 523 743 495 687 434 557 c 0
 385 455 345 370 345 370 c 2
 345 369 393 369 455 369 c 2
 565 369 l 1
 565 371 l 2
 564 372 555 456 544 557 c 0
EndSplineSet
EndChar

StartChar: B
Encoding: 66 66 33
Width: 744
Flags: HW
LayerCount: 2
Fore
SplineSet
301 818 m 0
 307 819 331 818 336 817 c 0
 342 815 347 810 347 807 c 0
 347 803 207 32 205 28 c 0
 203 23 198 18 189 14 c 0
 155 -2 100 -5 93 9 c 0
 92 11 103 67 163 402 c 2
 234 793 l 1
 239 797 l 2
 243 802 257 809 269 812 c 0
 277 815 288 817 301 818 c 0
423 818 m 0
 435 820 489 818 521 816 c 0
 613 809 686 782 726 743 c 0
 752 716 766 684 768 646 c 0
 769 626 765 603 757 578 c 0
 738 522 705 479 655 447 c 0
 642 439 614 425 598 419 c 2
 588 415 l 1
 588 415 592 413 598 411 c 0
 630 400 659 379 675 357 c 0
 701 322 709 272 698 219 c 0
 695 204 692 192 684 176 c 0
 658 125 614 84 551 55 c 0
 472 19 377 1 266 1 c 0
 236 1 231 1 226 2 c 0
 219 4 214 8 214 11 c 0
 214 21 234 33 265 39 c 0
 272 41 282 41 308 42 c 0
 356 43 375 45 401 49 c 0
 433 54 466 66 492 80 c 0
 529 100 559 134 575 173 c 0
 580 183 584 196 587 212 c 0
 590 230 590 263 587 279 c 0
 580 315 564 339 536 358 c 0
 514 372 494 380 462 385 c 0
 450 387 442 387 375 388 c 0
 295 389 295 389 288 395 c 0
 283 398 284 403 289 409 c 0
 297 416 314 423 336 427 c 0
 346 429 350 429 421 430 c 0
 468 430 497 431 502 432 c 0
 533 437 556 448 581 468 c 0
 609 491 632 526 644 564 c 0
 660 617 658 659 632 697 c 0
 608 733 556 760 489 771 c 0
 465 774 443 776 406 777 c 0
 370 778 364 779 358 784 c 0
 355 787 354 790 357 795 c 0
 363 805 391 815 423 818 c 0
EndSplineSet
EndChar

StartChar: C
Encoding: 67 67 34
Width: 744
Flags: HW
LayerCount: 2
Fore
SplineSet
521 823 m 0
 529 824 601 823 618 822 c 0
 674 817 716 807 751 790 c 0
 783 774 802 751 808 722 c 0
 810 712 809 695 807 690 c 0
 802 682 784 673 759 668 c 0
 750 666 744 666 729 666 c 0
 707 666 702 666 697 672 c 2
 694 674 l 1
 695 685 l 2
 695 699 694 709 688 720 c 0
 681 735 667 748 647 758 c 0
 612 774 567 782 504 782 c 0
 490 782 487 782 479 779 c 0
 449 769 412 741 386 709 c 0
 330 638 296 552 271 417 c 0
 248 294 249 214 272 145 c 0
 287 100 313 68 350 50 c 0
 375 38 392 35 443 38 c 0
 497 41 532 51 558 71 c 0
 575 84 587 101 592 119 c 0
 596 130 596 131 601 135 c 0
 614 145 641 154 669 155 c 0
 689 155 700 153 705 147 c 0
 707 146 708 143 708 142 c 0
 708 139 702 123 698 116 c 0
 675 71 619 34 534 14 c 0
 481 1 413 -6 350 -5 c 0
 306 -4 280 2 250 17 c 0
 200 42 169 82 153 148 c 0
 145 180 142 204 142 248 c 0
 142 291 145 323 154 377 c 0
 173 498 201 581 243 652 c 0
 280 713 321 754 377 783 c 0
 415 803 462 818 507 822 c 0
 513 823 519 823 521 823 c 0
EndSplineSet
EndChar

StartChar: D
Encoding: 68 68 35
Width: 721
Flags: HW
LayerCount: 2
Fore
SplineSet
301 818 m 0
 307 819 331 818 336 817 c 0
 342 815 347 810 347 807 c 0
 347 803 207 32 205 28 c 0
 203 23 198 18 189 14 c 0
 155 -2 100 -5 93 9 c 0
 92 11 103 67 163 402 c 2
 234 793 l 1
 239 797 l 2
 243 802 257 809 269 812 c 0
 277 815 288 817 301 818 c 0
423 818 m 0
 428 819 471 818 483 817 c 0
 551 811 608 791 650 759 c 0
 663 750 683 730 692 718 c 0
 720 681 737 635 744 579 c 0
 746 559 746 505 744 481 c 0
 735 392 713 312 680 246 c 0
 621 128 527 53 394 19 c 0
 347 7 301 1 257 1 c 0
 235 1 231 1 226 2 c 0
 219 4 214 8 214 11 c 0
 214 21 236 34 267 39 c 0
 272 40 286 42 299 42 c 0
 332 43 352 47 375 54 c 0
 462 83 535 156 581 260 c 0
 593 290 607 334 615 371 c 0
 643 499 637 599 597 669 c 0
 568 718 523 752 464 767 c 0
 439 774 424 776 393 777 c 0
 370 778 363 779 358 784 c 0
 356 785 355 787 355 788 c 0
 355 794 364 802 377 808 c 0
 389 813 401 815 423 818 c 0
EndSplineSet
EndChar

StartChar: E
Encoding: 69 69 36
Width: 721
Flags: HW
LayerCount: 2
Fore
SplineSet
301 818 m 0
 307 819 331 818 336 817 c 0
 342 815 347 810 347 807 c 0
 347 803 207 32 205 28 c 0
 203 23 198 18 189 14 c 0
 155 -2 100 -5 93 9 c 0
 92 11 103 67 163 402 c 2
 234 793 l 1
 239 797 l 2
 243 802 257 809 269 812 c 0
 277 815 288 817 301 818 c 0
423 818 m 0
 424 819 506 819 605 819 c 0
 776 819 785 818 790 817 c 0
 796 815 801 810 801 807 c 0
 801 801 783 789 765 784 c 0
 741 777 756 778 555 778 c 0
 384 778 373 778 368 779 c 0
 361 781 355 785 355 788 c 0
 355 792 359 798 365 801 c 0
 376 809 397 815 423 818 c 0
352 430 m 0
 353 431 426 431 514 431 c 0
 662 431 673 430 678 429 c 0
 685 426 689 423 689 419 c 0
 689 412 672 401 654 396 c 0
 629 389 643 390 465 390 c 0
 313 390 302 390 297 391 c 0
 290 393 285 397 285 400 c 0
 285 404 288 410 294 413 c 0
 305 421 326 427 352 430 c 0
282 41 m 0
 283 42 365 42 464 42 c 0
 635 42 643 41 648 40 c 0
 654 38 659 33 659 30 c 0
 659 24 642 12 624 7 c 0
 600 0 615 1 414 1 c 0
 243 1 231 1 226 2 c 0
 219 4 214 8 214 11 c 0
 214 15 217 21 223 24 c 0
 234 32 256 38 282 41 c 0
EndSplineSet
EndChar

StartChar: F
Encoding: 70 70 37
Width: 721
Flags: HW
LayerCount: 2
Fore
SplineSet
301 818 m 0
 307 819 331 818 336 817 c 0
 342 815 347 810 347 807 c 0
 347 803 207 32 205 28 c 0
 203 23 198 18 189 14 c 0
 155 -2 100 -5 93 9 c 0
 92 11 103 67 163 402 c 2
 234 793 l 1
 239 797 l 2
 243 802 257 809 269 812 c 0
 277 815 288 817 301 818 c 0
423 818 m 0
 424 819 506 819 605 819 c 0
 776 819 785 818 790 817 c 0
 796 815 801 810 801 807 c 0
 801 801 783 789 765 784 c 0
 741 777 756 778 555 778 c 0
 384 778 373 778 368 779 c 0
 361 781 355 785 355 788 c 0
 355 792 359 798 365 801 c 0
 376 809 397 815 423 818 c 0
352 430 m 0
 353 431 426 431 514 431 c 0
 662 431 673 430 678 429 c 0
 685 426 689 423 689 419 c 0
 689 412 672 401 654 396 c 0
 629 389 643 390 465 390 c 0
 313 390 302 390 297 391 c 0
 290 393 285 397 285 400 c 0
 285 404 288 410 294 413 c 0
 305 421 326 427 352 430 c 0
EndSplineSet
EndChar

StartChar: G
Encoding: 71 71 38
Width: 744
Flags: HW
LayerCount: 2
Fore
SplineSet
521 823 m 0
 529 824 601 823 618 822 c 0
 674 817 716 807 751 790 c 0
 783 774 802 751 808 722 c 0
 810 712 809 695 807 690 c 0
 802 682 784 673 759 668 c 0
 750 666 744 666 729 666 c 0
 707 666 702 666 697 672 c 2
 694 674 l 1
 695 685 l 2
 695 699 694 709 688 720 c 0
 681 735 667 748 647 758 c 0
 612 774 567 782 504 782 c 0
 490 782 487 782 479 779 c 0
 449 769 412 741 386 709 c 0
 330 638 296 552 271 417 c 0
 248 294 249 214 272 145 c 0
 287 100 313 68 350 50 c 0
 375 38 392 35 443 38 c 0
 497 41 532 51 558 71 c 0
 574 83 587 100 591 116 c 0
 592 119 604 181 617 255 c 2
 642 389 l 1
 553 389 l 2
 471 389 463 390 458 391 c 0
 442 397 445 408 465 418 c 0
 474 422 487 426 501 429 c 0
 509 430 520 430 621 431 c 0
 738 431 742 431 751 427 c 0
 760 423 761 437 732 278 c 0
 715 183 705 133 703 129 c 0
 685 77 627 37 534 14 c 0
 481 1 413 -6 350 -5 c 0
 306 -4 280 2 250 17 c 0
 200 42 169 82 153 148 c 0
 145 180 142 204 142 248 c 0
 142 291 145 323 154 377 c 0
 173 498 201 581 243 652 c 0
 280 713 321 754 377 783 c 0
 415 803 462 818 507 822 c 0
 513 823 519 823 521 823 c 0
EndSplineSet
EndChar

StartChar: H
Encoding: 72 72 39
Width: 744
Flags: HW
LayerCount: 2
Fore
SplineSet
301 818 m 0
 307 819 331 818 336 817 c 0
 342 815 347 810 347 807 c 0
 347 803 207 32 205 28 c 0
 203 23 198 18 189 14 c 0
 155 -2 100 -5 93 9 c 0
 92 11 103 67 163 402 c 2
 234 793 l 1
 239 797 l 2
 243 802 257 809 269 812 c 0
 277 815 288 817 301 818 c 0
755 818 m 0
 761 819 785 818 790 817 c 0
 796 815 801 810 801 807 c 0
 801 803 660 32 658 28 c 0
 656 23 652 18 643 14 c 0
 609 -2 554 -5 547 9 c 0
 546 11 556 67 616 402 c 2
 688 793 l 1
 692 797 l 2
 696 802 711 809 723 812 c 0
 731 815 742 817 755 818 c 0
351 451 m 0
 355 451 411 452 477 452 c 0
 588 451 596 451 601 450 c 0
 608 447 612 443 612 439 c 0
 612 430 591 419 561 413 c 2
 551 411 l 1
 432 410 l 2
 353 410 311 410 307 411 c 0
 293 413 286 419 290 425 c 0
 295 436 321 447 351 451 c 0
EndSplineSet
EndChar

StartChar: I
Encoding: 73 73 40
Width: 460
Flags: HW
LayerCount: 2
Fore
SplineSet
265 818 m 0
 272 819 530 819 536 818 c 0
 544 817 551 813 553 810 c 0
 554 807 554 807 553 804 c 0
 548 795 527 784 500 779 c 0
 494 778 484 778 459 777 c 2
 427 777 l 1
 427 774 l 2
 426 770 295 51 294 46 c 2
 294 42 l 1
 341 42 l 2
 389 42 398 41 406 38 c 0
 411 35 414 31 412 27 c 0
 407 18 386 7 358 2 c 0
 349 1 339 1 212 1 c 0
 83 1 74 1 69 2 c 0
 62 4 56 8 56 11 c 0
 56 21 77 33 108 39 c 0
 116 41 123 41 151 42 c 2
 183 42 l 1
 249 408 l 2
 286 610 316 774 316 775 c 0
 316 777 313 777 265 777 c 0
 210 778 208 778 201 784 c 0
 198 787 197 790 200 795 c 0
 206 805 233 815 265 818 c 0
EndSplineSet
EndChar

StartChar: J
Encoding: 74 74 41
Width: 618
Flags: HW
LayerCount: 2
Fore
SplineSet
508 818 m 0
 515 819 772 819 778 818 c 0
 786 817 794 813 796 810 c 0
 797 807 797 807 796 804 c 0
 791 795 769 784 742 779 c 0
 736 778 726 778 701 777 c 2
 670 777 l 1
 670 774 l 2
 669 773 651 668 627 541 c 0
 583 300 580 286 575 264 c 0
 558 189 527 128 486 86 c 0
 447 45 391 16 324 5 c 0
 222 -12 144 15 111 82 c 0
 101 101 94 122 90 151 c 0
 88 167 88 214 90 237 c 0
 93 256 97 284 98 289 c 0
 102 303 136 316 173 318 c 0
 193 319 206 316 211 310 c 0
 212 307 212 306 210 295 c 0
 197 215 200 156 219 111 c 0
 236 72 272 45 311 42 c 0
 318 42 320 42 328 45 c 0
 375 63 419 121 446 195 c 0
 453 217 461 241 466 267 c 0
 467 272 488 388 513 524 c 0
 538 660 558 773 559 774 c 2
 559 777 l 1
 508 777 l 2
 453 778 450 778 443 784 c 0
 440 787 439 790 442 795 c 0
 448 805 476 815 508 818 c 0
EndSplineSet
EndChar

StartChar: K
Encoding: 75 75 42
Width: 721
Flags: HW
LayerCount: 2
Fore
SplineSet
301 818 m 0
 307 819 331 818 336 817 c 0
 342 815 347 810 347 807 c 0
 347 806 334 736 319 653 c 0
 304 569 292 502 292 501 c 2
 292 501 382 567 493 649 c 0
 603 731 694 800 697 801 c 0
 712 812 739 818 767 818 c 0
 785 819 793 817 798 812 c 0
 802 808 802 806 796 800 c 0
 794 797 718 741 628 674 c 0
 538 607 464 552 463 552 c 0
 462 551 481 500 560 290 c 0
 615 148 659 30 659 29 c 0
 659 26 650 18 642 13 c 0
 624 5 604 1 580 1 c 0
 563 0 554 2 550 6 c 0
 548 8 528 60 458 245 c 0
 408 374 368 479 367 479 c 2
 367 479 346 463 321 445 c 2
 275 413 l 1
 242 222 l 2
 223 117 206 30 205 27 c 0
 203 23 196 17 188 13 c 0
 154 -2 100 -4 93 9 c 0
 92 11 103 67 163 402 c 2
 234 793 l 1
 239 797 l 2
 243 802 257 809 269 812 c 0
 277 815 288 817 301 818 c 0
EndSplineSet
EndChar

StartChar: L
Encoding: 76 76 43
Width: 699
Flags: HW
LayerCount: 2
Fore
SplineSet
301 818 m 0
 307 819 331 818 336 817 c 0
 342 815 347 810 347 807 c 0
 347 803 207 32 205 28 c 0
 203 23 198 18 189 14 c 0
 155 -2 100 -5 93 9 c 0
 92 11 103 67 163 402 c 2
 234 793 l 1
 239 797 l 2
 243 802 257 809 269 812 c 0
 277 815 288 817 301 818 c 0
282 41 m 0
 290 42 635 42 641 41 c 0
 649 40 656 36 658 33 c 0
 659 30 659 30 658 27 c 0
 653 18 633 7 605 2 c 0
 596 1 584 1 414 1 c 0
 243 1 231 1 226 2 c 0
 219 4 214 8 214 11 c 0
 214 15 217 21 223 24 c 0
 234 32 257 39 282 41 c 0
EndSplineSet
EndChar

StartChar: M
Encoding: 77 77 44
Width: 1068
Flags: HW
LayerCount: 2
Fore
SplineSet
301 818 m 0
 302 819 309 819 317 819 c 0
 331 818 339 817 344 813 c 0
 347 810 339 834 482 399 c 0
 527 262 565 151 565 151 c 1
 565 151 665 295 788 471 c 0
 911 648 1013 794 1015 797 c 0
 1023 805 1042 813 1065 817 c 0
 1079 819 1104 819 1112 817 c 0
 1119 815 1124 810 1124 807 c 0
 1124 803 984 32 982 28 c 0
 980 23 976 18 967 14 c 0
 933 -2 877 -5 870 9 c 0
 869 11 877 53 922 299 c 0
 951 457 974 586 974 587 c 1
 973 587 887 464 783 314 c 0
 630 94 594 41 590 38 c 0
 582 32 563 26 545 22 c 0
 532 20 505 20 497 22 c 0
 494 23 489 25 488 26 c 0
 486 27 471 72 396 299 c 0
 346 449 305 571 305 571 c 1
 305 571 283 449 256 301 c 0
 228 151 206 30 205 27 c 0
 203 23 196 17 188 13 c 0
 154 -2 100 -4 93 9 c 0
 92 11 103 67 163 402 c 2
 234 793 l 1
 239 797 l 2
 243 802 257 809 269 812 c 0
 277 815 288 817 301 818 c 0
EndSplineSet
EndChar

StartChar: N
Encoding: 78 78 45
Width: 744
Flags: HW
LayerCount: 2
Fore
SplineSet
301 818 m 0
 308 819 325 819 331 818 c 0
 340 816 344 813 347 808 c 0
 348 806 401 673 466 513 c 0
 531 352 584 221 584 222 c 2
 584 222 607 350 636 508 c 2
 688 793 l 1
 692 797 l 2
 699 805 719 813 741 817 c 0
 755 819 780 819 788 817 c 0
 795 815 801 810 801 807 c 0
 801 803 660 32 658 28 c 0
 656 23 652 18 643 14 c 0
 625 5 604 1 581 1 c 0
 563 0 554 2 550 6 c 0
 548 8 514 90 428 304 c 0
 363 466 309 599 309 598 c 2
 309 598 287 470 258 315 c 0
 229 159 206 31 205 28 c 0
 203 23 198 18 189 14 c 0
 155 -2 100 -5 93 9 c 0
 92 11 103 67 163 402 c 2
 234 793 l 1
 239 797 l 2
 248 806 272 815 301 818 c 0
EndSplineSet
EndChar

StartChar: O
Encoding: 79 79 46
Width: 942
Flags: HW
LayerCount: 2
Fore
SplineSet
612 823 m 0
 614 824 630 824 648 823 c 0
 693 823 723 820 760 811 c 0
 866 784 931 721 956 622 c 0
 971 557 970 477 948 385 c 0
 916 242 847 136 745 73 c 0
 684 35 604 8 521 -1 c 0
 380 -16 263 13 197 82 c 0
 139 142 116 234 129 352 c 0
 141 463 177 565 230 638 c 0
 244 658 256 671 274 689 c 0
 312 727 352 753 403 776 c 0
 458 801 528 818 593 822 c 0
 602 823 610 823 612 823 c 0
621 781 m 0
 595 783 566 782 542 778 c 0
 482 768 427 739 379 691 c 0
 310 622 265 523 247 399 c 0
 229 279 243 190 290 127 c 0
 335 68 416 34 508 37 c 0
 557 39 598 49 638 72 c 0
 735 124 803 228 835 369 c 0
 859 472 860 559 837 625 c 0
 805 718 731 772 621 781 c 0
EndSplineSet
EndChar

StartChar: P
Encoding: 80 80 47
Width: 721
Flags: HW
LayerCount: 2
Fore
SplineSet
301 818 m 0
 307 819 331 818 336 817 c 0
 342 815 347 810 347 807 c 0
 347 803 207 32 205 28 c 0
 203 23 198 18 189 14 c 0
 155 -2 100 -5 93 9 c 0
 92 11 103 67 163 402 c 2
 234 793 l 1
 239 797 l 2
 243 802 257 809 269 812 c 0
 277 815 288 817 301 818 c 0
423 818 m 0
 428 819 493 818 509 817 c 0
 592 811 654 795 700 766 c 0
 738 742 761 710 770 669 c 0
 773 654 773 624 770 609 c 0
 757 544 709 488 639 452 c 0
 557 411 456 389 337 389 c 0
 307 389 302 389 297 390 c 0
 289 393 285 396 285 400 c 0
 285 407 298 416 316 422 c 0
 333 428 344 429 380 430 c 0
 397 430 417 431 423 432 c 0
 523 438 591 472 632 534 c 0
 664 581 668 640 644 684 c 0
 630 712 610 729 575 746 c 0
 545 759 511 769 469 773 c 0
 447 776 438 776 403 777 c 0
 369 778 364 779 358 784 c 0
 356 785 355 787 355 788 c 0
 355 794 364 802 377 808 c 0
 389 813 400 815 423 818 c 0
EndSplineSet
EndChar

StartChar: Q
Encoding: 81 81 48
Width: 942
Flags: HW
LayerCount: 2
Fore
SplineSet
612 823 m 0
 614 824 630 824 648 823 c 0
 693 823 723 820 760 811 c 0
 866 784 931 721 956 622 c 0
 969 566 969 498 955 421 c 0
 939 329 910 254 869 193 c 0
 852 168 841 154 817 129 c 2
 803 115 l 1
 828 75 l 2
 843 53 856 34 856 32 c 0
 859 27 852 19 840 13 c 0
 811 0 767 -4 751 4 c 0
 747 6 744 9 730 31 c 2
 715 55 l 1
 707 51 l 2
 657 25 587 6 521 -1 c 0
 380 -16 263 13 197 82 c 0
 139 142 116 234 129 352 c 0
 141 463 177 565 230 638 c 0
 244 658 256 671 274 689 c 0
 312 727 352 753 403 776 c 0
 458 801 528 818 593 822 c 0
 602 823 610 823 612 823 c 0
621 781 m 0
 595 783 566 782 542 778 c 0
 482 768 427 739 379 691 c 0
 310 622 265 523 247 399 c 0
 229 279 243 190 290 127 c 0
 319 89 362 61 414 47 c 0
 462 35 516 34 563 44 c 0
 601 51 642 70 675 95 c 2
 684 101 l 1
 678 112 l 2
 674 117 661 137 650 154 c 0
 638 171 629 186 629 186 c 2
 629 187 630 189 631 191 c 0
 639 204 675 216 709 216 c 0
 721 216 725 216 731 214 c 0
 734 213 738 211 739 210 c 0
 740 209 745 203 750 196 c 2
 758 183 l 2
 759 183 771 202 778 215 c 0
 807 266 829 328 842 404 c 0
 868 542 848 648 783 713 c 0
 744 753 689 776 621 781 c 0
EndSplineSet
EndChar

StartChar: R
Encoding: 82 82 49
Width: 744
Flags: HW
LayerCount: 2
Fore
SplineSet
301 818 m 0
 307 819 331 818 336 817 c 0
 342 815 347 810 347 807 c 0
 347 803 207 32 205 28 c 0
 203 23 198 18 189 14 c 0
 155 -2 100 -5 93 9 c 0
 92 11 103 67 163 402 c 2
 234 793 l 1
 239 797 l 2
 243 802 257 809 269 812 c 0
 277 815 288 817 301 818 c 0
423 818 m 0
 429 819 498 818 520 816 c 0
 597 811 655 797 703 772 c 0
 726 761 741 749 755 734 c 0
 773 715 786 692 792 664 c 0
 794 651 794 622 791 608 c 0
 782 563 752 519 710 486 c 0
 667 452 602 425 529 409 c 0
 517 406 513 404 513 403 c 0
 513 402 552 318 599 217 c 0
 646 116 685 32 685 30 c 0
 686 27 678 19 668 13 c 0
 650 5 629 1 605 1 c 0
 589 0 580 2 575 6 c 0
 573 7 544 69 484 199 c 2
 396 390 l 1
 382 389 l 1
 336 389 l 2
 307 389 302 389 297 390 c 0
 289 393 285 396 285 400 c 0
 285 407 298 416 316 422 c 0
 333 428 344 429 382 430 c 0
 439 431 467 434 498 440 c 0
 526 445 547 454 572 465 c 0
 602 480 625 498 645 524 c 0
 667 553 678 582 680 616 c 0
 681 652 669 684 642 711 c 0
 615 738 571 758 516 768 c 0
 487 773 457 776 407 777 c 0
 370 778 364 778 358 784 c 0
 356 785 355 787 355 788 c 0
 355 794 364 802 377 808 c 0
 389 813 400 815 423 818 c 0
EndSplineSet
EndChar

StartChar: S
Encoding: 83 83 50
Width: 744
Flags: HW
LayerCount: 2
Fore
SplineSet
513 823 m 0
 520 824 593 823 606 822 c 0
 639 819 667 814 692 806 c 0
 740 791 767 767 778 734 c 0
 784 715 783 694 776 686 c 0
 771 681 754 674 740 670 c 0
 724 666 710 665 695 665 c 0
 680 666 673 668 669 672 c 0
 667 675 667 676 668 679 c 2
 668 694 l 2
 668 712 661 728 648 742 c 0
 629 761 596 774 551 780 c 0
 533 782 473 782 460 780 c 0
 412 773 372 747 342 703 c 0
 328 681 314 651 308 621 c 0
 306 610 306 605 306 590 c 0
 306 573 306 570 308 561 c 0
 313 543 324 524 338 509 c 0
 364 481 412 453 474 434 c 0
 521 419 532 415 545 410 c 0
 635 375 682 330 695 272 c 0
 698 259 697 233 694 217 c 0
 682 163 659 118 623 83 c 0
 579 41 511 12 430 1 c 0
 399 -4 386 -5 345 -4 c 0
 280 -4 241 0 202 13 c 0
 148 30 119 58 113 98 c 0
 111 108 112 124 115 129 c 0
 119 138 141 148 169 153 c 0
 193 157 219 154 224 147 c 0
 225 146 226 142 226 130 c 0
 226 116 226 113 228 106 c 0
 232 95 238 86 247 77 c 0
 258 66 274 56 297 49 c 0
 320 41 344 38 382 37 c 0
 430 36 451 40 479 54 c 0
 523 77 558 122 574 177 c 0
 581 201 583 212 583 231 c 0
 583 246 583 250 581 258 c 0
 575 278 565 296 550 312 c 0
 524 341 478 367 420 385 c 0
 410 388 393 394 382 397 c 0
 301 424 244 458 216 497 c 0
 208 508 199 528 196 542 c 0
 193 553 193 555 193 572 c 0
 193 592 194 604 201 626 c 0
 218 686 251 730 301 763 c 0
 350 795 421 816 495 822 c 0
 502 823 510 823 513 823 c 0
EndSplineSet
EndChar

StartChar: T
Encoding: 84 84 51
Width: 699
Flags: HW
LayerCount: 2
Fore
SplineSet
279 818 m 0
 281 819 390 819 522 819 c 0
 751 819 762 818 767 817 c 0
 773 815 778 810 778 807 c 0
 778 801 760 789 742 784 c 0
 719 777 723 778 631 777 c 2
 547 777 l 1
 478 403 l 2
 441 197 410 28 409 27 c 0
 405 18 383 7 356 2 c 0
 343 0 317 0 309 2 c 0
 302 4 297 8 297 12 c 0
 297 13 328 184 366 391 c 0
 404 599 434 770 435 773 c 2
 435 777 l 1
 332 777 l 2
 237 777 228 778 223 779 c 0
 216 782 212 786 212 790 c 0
 212 801 246 815 279 818 c 0
EndSplineSet
EndChar

StartChar: U
Encoding: 85 85 52
Width: 744
Flags: HW
LayerCount: 2
Fore
SplineSet
301 818 m 0
 307 819 331 818 336 817 c 0
 342 815 347 810 347 807 c 0
 347 806 324 673 294 512 c 0
 258 312 241 215 240 206 c 0
 238 179 240 149 247 129 c 0
 267 68 325 35 408 37 c 0
 427 38 440 40 454 45 c 0
 512 64 559 121 579 196 c 0
 581 203 605 338 635 501 c 2
 688 793 l 1
 692 797 l 2
 699 805 719 813 741 817 c 0
 755 819 780 819 788 817 c 0
 795 815 801 810 801 807 c 0
 801 802 696 228 692 215 c 0
 681 166 659 124 627 91 c 0
 570 33 474 -2 362 -5 c 0
 289 -6 230 6 190 34 c 0
 177 42 159 60 152 72 c 0
 130 104 122 144 126 191 c 0
 127 198 149 330 180 499 c 2
 234 793 l 1
 239 797 l 2
 243 802 257 809 269 812 c 0
 277 815 288 817 301 818 c 0
EndSplineSet
EndChar

StartChar: V
Encoding: 86 86 53
Width: 780
Flags: HW
LayerCount: 2
Fore
SplineSet
279 818 m 0
 281 819 288 819 296 818 c 0
 315 818 324 815 325 807 c 0
 326 805 344 640 366 439 c 0
 388 238 406 75 406 75 c 2
 406 74 484 236 577 435 c 0
 730 756 749 797 752 799 c 0
 762 807 777 812 800 817 c 0
 812 819 839 819 847 817 c 0
 854 815 859 810 859 807 c 0
 859 805 775 629 674 415 c 0
 506 61 489 25 485 22 c 0
 477 15 461 7 439 3 c 0
 430 1 425 1 376 0 c 0
 321 0 313 0 304 4 c 0
 302 5 299 7 299 8 c 0
 298 10 286 111 255 398 c 0
 231 610 212 786 212 788 c 0
 212 792 213 794 216 798 c 0
 226 807 253 816 279 818 c 0
EndSplineSet
EndChar

StartChar: W
Encoding: 87 87 54
Width: 1104
Flags: HW
LayerCount: 2
Fore
SplineSet
279 818 m 0
 281 819 288 819 296 818 c 0
 315 818 324 815 325 807 c 0
 326 805 332 645 340 449 c 0
 348 253 355 92 355 90 c 0
 355 87 388 163 496 420 c 0
 649 785 636 757 648 764 c 0
 657 769 674 774 688 776 c 0
 698 778 704 778 717 778 c 0
 734 777 740 776 744 771 c 2
 746 769 l 1
 766 430 l 2
 776 244 784 91 784 90 c 0
 784 89 849 246 928 441 c 0
 1007 635 1072 795 1073 796 c 0
 1075 799 1085 804 1092 808 c 0
 1100 811 1112 814 1124 817 c 0
 1136 819 1163 819 1171 817 c 0
 1178 815 1184 810 1184 807 c 0
 1183 805 1112 629 1025 415 c 0
 895 97 865 25 863 22 c 0
 856 16 839 8 819 3 c 0
 807 1 806 1 754 0 c 0
 699 0 690 0 681 4 c 0
 679 5 676 7 676 8 c 0
 674 10 671 57 660 265 c 0
 652 405 646 520 646 521 c 0
 646 522 599 411 542 274 c 0
 443 36 437 25 433 22 c 0
 425 15 407 7 387 3 c 0
 377 1 374 1 324 0 c 0
 269 0 261 0 252 4 c 0
 250 5 247 7 247 8 c 0
 245 10 242 61 228 394 c 0
 219 604 212 780 212 784 c 2
 212 793 l 1
 216 798 l 2
 226 807 253 816 279 818 c 0
EndSplineSet
EndChar

StartChar: X
Encoding: 88 88 55
Width: 744
Flags: HW
LayerCount: 2
Fore
SplineSet
301 818 m 0
 308 819 325 819 331 818 c 0
 340 816 344 813 346 809 c 0
 347 808 375 742 409 662 c 0
 443 581 470 515 470 515 c 2
 470 514 521 577 581 654 c 0
 640 732 691 797 693 799 c 0
 701 806 721 813 741 817 c 0
 755 819 780 819 788 817 c 0
 795 815 801 810 801 807 c 0
 801 806 800 804 799 802 c 0
 797 800 731 714 651 613 c 0
 539 470 507 427 507 426 c 0
 508 424 545 335 590 227 c 0
 635 118 672 30 672 30 c 2
 672 25 662 17 650 11 c 0
 633 4 615 1 593 1 c 0
 575 0 567 2 562 6 c 0
 560 7 543 49 494 166 c 0
 458 253 427 325 427 325 c 2
 426 325 373 256 308 173 c 0
 223 64 188 20 185 18 c 0
 178 14 174 12 163 8 c 0
 129 -3 86 -2 81 9 c 0
 80 12 80 13 82 16 c 0
 84 18 154 108 238 216 c 0
 322 324 390 413 390 413 c 2
 390 414 354 499 311 602 c 0
 246 758 233 790 234 792 c 0
 236 799 252 807 269 812 c 0
 277 815 291 817 301 818 c 0
EndSplineSet
EndChar

StartChar: Y
Encoding: 89 89 56
Width: 744
Flags: HW
LayerCount: 2
Fore
SplineSet
301 818 m 0
 308 819 325 819 331 818 c 0
 340 816 344 813 347 808 c 0
 348 806 377 741 411 664 c 2
 471 522 l 1
 474 524 l 2
 475 525 524 586 582 659 c 0
 640 732 689 794 691 797 c 0
 699 805 718 813 741 817 c 0
 755 819 780 819 788 817 c 0
 795 815 801 810 801 807 c 0
 801 806 800 804 799 802 c 0
 797 800 731 716 651 617 c 0
 516 448 507 436 506 431 c 0
 506 428 488 337 469 228 c 0
 450 118 432 29 432 28 c 0
 428 18 406 7 379 2 c 0
 366 0 340 0 332 2 c 0
 325 4 319 8 319 12 c 0
 319 13 336 105 356 218 c 2
 393 421 l 1
 313 605 l 2
 245 760 233 790 234 792 c 0
 236 799 252 807 269 812 c 0
 277 815 291 817 301 818 c 0
EndSplineSet
EndChar

StartChar: Z
Encoding: 90 90 57
Width: 699
Flags: HW
LayerCount: 2
Fore
SplineSet
279 818 m 0
 289 819 754 819 760 818 c 0
 772 816 780 810 777 805 c 0
 777 804 646 632 486 423 c 2
 196 43 l 1
 408 42 l 2
 611 42 621 41 626 40 c 0
 632 38 637 33 637 30 c 0
 637 24 619 12 601 7 c 0
 577 0 598 1 335 0 c 0
 172 0 93 0 89 1 c 0
 75 3 68 9 72 15 c 0
 72 16 202 188 362 397 c 2
 653 777 l 1
 441 777 l 2
 241 777 228 778 223 779 c 0
 216 782 212 786 212 790 c 0
 212 801 246 815 279 818 c 0
EndSplineSet
EndChar

StartChar: bracketleft
Encoding: 91 91 58
Width: 331
Flags: HW
LayerCount: 2
Fore
SplineSet
263 859 m 0
 265 860 302 860 345 860 c 0
 417 859 424 859 429 858 c 0
 445 852 442 841 423 831 c 0
 418 829 409 826 404 825 c 0
 385 819 380 819 341 818 c 0
 309 818 305 818 305 816 c 0
 304 815 271 633 230 411 c 0
 190 189 158 5 157 4 c 2
 157 1 l 1
 208 1 l 2
 239 1 262 1 266 0 c 0
 279 -2 287 -8 283 -14 c 0
 279 -23 260 -32 234 -38 c 2
 222 -40 l 1
 140 -40 l 2
 65 -40 58 -40 53 -39 c 0
 45 -36 41 -33 41 -29 c 0
 41 -23 197 833 199 835 c 0
 204 845 235 857 263 859 c 0
EndSplineSet
EndChar

StartChar: backslash
Encoding: 92 92 59
Width: 574
Flags: HW
LayerCount: 2
Fore
SplineSet
256 818 m 0
 258 819 265 819 273 818 c 0
 287 818 295 816 299 813 c 0
 302 811 320 753 418 420 c 0
 528 54 534 29 532 27 c 0
 528 18 507 7 480 2 c 0
 474 1 465 1 455 1 c 0
 438 0 429 2 424 7 c 0
 421 9 410 44 305 399 c 0
 222 677 189 790 190 792 c 0
 192 802 224 815 256 818 c 0
EndSplineSet
EndChar

StartChar: bracketright
Encoding: 93 93 60
Width: 331
Flags: HW
LayerCount: 2
Fore
SplineSet
263 859 m 0
 273 860 416 860 422 859 c 0
 430 858 437 854 439 851 c 0
 440 849 431 797 362 419 c 0
 319 183 285 -11 284 -12 c 0
 282 -21 262 -32 234 -38 c 2
 222 -40 l 1
 140 -40 l 2
 65 -40 58 -40 53 -39 c 0
 45 -36 41 -33 41 -29 c 0
 41 -22 57 -11 75 -6 c 0
 94 0 99 0 139 1 c 2
 176 1 l 1
 250 410 l 1
 325 818 l 1
 269 818 l 2
 208 819 206 819 200 825 c 0
 197 828 196 831 199 836 c 0
 205 845 236 857 263 859 c 0
EndSplineSet
EndChar

StartChar: asciicircum
Encoding: 94 94 61
Width: 412
Flags: HW
LayerCount: 2
Fore
SplineSet
361 818 m 0
 369 819 384 819 390 818 c 0
 402 816 402 817 450 762 c 0
 475 733 495 710 495 709 c 0
 497 704 489 696 477 690 c 0
 450 678 407 673 389 681 c 0
 386 682 379 689 359 712 c 0
 346 728 334 741 334 741 c 2
 333 741 319 731 304 718 c 0
 273 693 266 688 249 684 c 0
 214 674 178 675 172 686 c 0
 171 689 171 689 173 693 c 0
 176 698 302 801 312 805 c 0
 324 811 346 817 361 818 c 0
EndSplineSet
EndChar

StartChar: underscore
Encoding: 95 95 62
Width: 728
Flags: HW
LayerCount: 2
Fore
SplineSet
63 -1 m 0
 64 0 210 0 387 0 c 0
 690 0 708 -1 713 -2 c 0
 719 -4 724 -8 724 -11 c 0
 724 -21 705 -32 673 -39 c 2
 664 -41 l 1
 343 -42 l 2
 124 -42 19 -42 15 -41 c 0
 6 -40 -1 -37 -3 -33 c 0
 -4 -30 -4 -30 -3 -27 c 0
 3 -16 29 -5 63 -1 c 0
EndSplineSet
EndChar

StartChar: a
Encoding: 97 97 63
Width: 703
Flags: HW
LayerCount: 2
Fore
SplineSet
456 618 m 0
 510 622 570 615 609 599 c 2
 617 596 l 1
 622 598 l 2
 652 615 715 619 722 605 c 0
 723 602 717 568 671 317 c 0
 643 160 618 31 617 28 c 0
 615 23 611 18 602 14 c 0
 574 1 529 -4 512 4 c 0
 506 7 505 10 506 19 c 2
 508 28 l 1
 508 28 502 26 496 23 c 0
 465 12 423 1 382 -3 c 0
 354 -5 307 -5 288 -2 c 0
 242 5 208 20 180 47 c 0
 160 69 146 93 137 128 c 0
 131 153 130 167 130 200 c 0
 129 236 132 260 141 307 c 0
 166 439 221 528 307 575 c 0
 348 598 404 614 456 618 c 0
473 575 m 0
 468 575 455 577 445 578 c 0
 422 578 418 576 398 566 c 0
 369 553 349 533 325 501 c 0
 287 451 262 381 249 288 c 0
 244 258 244 246 244 216 c 0
 244 192 244 185 246 173 c 0
 250 148 256 128 264 110 c 0
 286 67 328 39 375 37 c 0
 415 35 445 45 474 70 c 0
 501 92 522 128 532 167 c 0
 535 181 580 421 581 434 c 0
 583 448 582 470 579 482 c 0
 570 533 532 566 473 575 c 0
EndSplineSet
EndChar

StartChar: b
Encoding: 98 98 64
Width: 703
Flags: HW
LayerCount: 2
Fore
SplineSet
301 818 m 0
 307 819 331 818 336 817 c 0
 342 815 347 810 347 807 c 0
 347 806 339 761 330 707 c 0
 320 653 311 607 311 606 c 2
 311 606 317 607 324 610 c 0
 375 630 439 642 497 641 c 0
 559 639 607 621 640 585 c 0
 651 574 658 563 666 546 c 0
 691 495 695 430 681 344 c 0
 664 240 635 166 589 109 c 0
 544 54 479 16 399 1 c 0
 330 -11 256 -5 206 15 c 0
 199 18 198 19 196 17 c 0
 195 16 191 15 188 13 c 0
 154 -2 100 -4 93 9 c 0
 92 11 103 67 163 402 c 2
 234 793 l 1
 239 797 l 2
 243 802 257 809 269 812 c 0
 277 815 288 817 301 818 c 0
465 596 m 0
 457 598 430 600 424 598 c 0
 423 598 418 598 414 597 c 0
 404 595 391 591 379 585 c 0
 333 560 297 509 282 442 c 0
 278 425 237 196 236 184 c 0
 234 169 235 147 238 133 c 0
 249 77 288 44 355 38 c 0
 384 35 398 38 421 51 c 0
 473 80 518 143 543 223 c 0
 555 259 565 309 571 355 c 0
 584 455 565 533 517 570 c 0
 501 582 484 591 465 596 c 0
EndSplineSet
EndChar

StartChar: c
Encoding: 99 99 65
Width: 703
Flags: HW
LayerCount: 2
Fore
SplineSet
452 617 m 0
 460 618 477 620 490 620 c 0
 616 621 695 592 707 542 c 0
 709 535 709 524 708 519 c 0
 707 514 699 508 689 503 c 0
 672 496 650 490 628 490 c 0
 615 490 607 492 601 495 c 0
 595 498 595 499 595 509 c 0
 596 535 579 553 542 565 c 0
 519 573 496 577 457 578 c 0
 424 578 420 577 398 566 c 0
 369 553 349 533 325 501 c 0
 287 451 262 381 249 288 c 0
 244 258 244 246 244 216 c 0
 244 184 245 170 251 146 c 0
 265 90 300 53 351 40 c 0
 364 37 387 36 417 38 c 0
 441 39 457 42 472 46 c 0
 497 54 513 70 519 90 c 0
 522 101 526 105 539 111 c 0
 557 120 581 125 605 124 c 0
 620 123 628 121 632 117 c 0
 635 113 634 110 630 98 c 0
 623 79 605 60 579 45 c 0
 548 27 496 10 444 2 c 0
 395 -5 322 -7 288 -2 c 0
 242 5 208 20 180 47 c 0
 160 69 146 93 137 128 c 0
 131 153 130 167 130 200 c 0
 129 236 132 260 141 307 c 0
 168 449 230 542 327 586 c 0
 366 603 409 614 452 617 c 0
EndSplineSet
EndChar

StartChar: d
Encoding: 100 100 66
Width: 703
Flags: HW
LayerCount: 2
Fore
SplineSet
714 818 m 0
 720 819 744 818 749 817 c 0
 755 815 760 810 760 807 c 0
 760 803 619 32 617 28 c 0
 615 23 611 18 602 14 c 0
 568 -2 513 -5 506 9 c 0
 505 12 505 14 508 26 c 2
 508 28 l 1
 503 26 l 2
 473 14 429 3 393 -1 c 0
 295 -12 228 2 185 46 c 0
 159 72 144 106 137 155 c 0
 135 166 135 173 135 198 c 0
 135 229 135 239 140 270 c 0
 152 360 177 430 214 486 c 0
 237 519 265 548 298 568 c 0
 333 590 378 606 425 614 c 0
 483 623 554 619 600 603 c 0
 606 601 611 599 611 600 c 2
 611 600 620 644 630 696 c 2
 647 793 l 1
 651 797 l 2
 655 802 670 809 682 812 c 0
 690 815 701 817 714 818 c 0
473 575 m 0
 468 575 455 577 446 578 c 0
 431 578 428 577 423 575 c 0
 372 560 323 508 291 433 c 0
 273 390 256 319 250 256 c 0
 248 237 248 189 250 175 c 0
 258 122 276 86 305 63 c 0
 334 41 362 34 400 38 c 0
 428 40 451 51 474 70 c 0
 501 92 522 128 532 167 c 0
 535 181 580 421 581 434 c 0
 583 448 582 470 579 482 c 0
 570 533 532 566 473 575 c 0
EndSplineSet
EndChar

StartChar: e
Encoding: 101 101 67
Width: 681
Flags: HW
LayerCount: 2
Fore
SplineSet
446 618 m 0
 460 619 499 618 512 616 c 0
 572 608 613 581 636 536 c 0
 647 514 654 488 658 458 c 0
 660 442 660 393 657 370 c 0
 655 348 649 315 648 312 c 0
 645 306 629 297 613 293 c 0
 589 286 601 287 436 286 c 0
 335 286 284 286 280 287 c 0
 266 289 258 295 262 301 c 0
 266 310 283 319 309 325 c 2
 323 327 l 1
 431 328 l 1
 541 328 l 1
 542 336 l 2
 545 362 546 374 546 401 c 0
 547 431 546 442 541 464 c 0
 536 489 526 512 515 528 c 0
 498 553 470 572 440 577 c 0
 427 579 421 577 410 574 c 0
 358 556 309 496 280 417 c 0
 264 373 251 312 245 255 c 0
 243 235 243 188 245 172 c 0
 248 148 256 121 264 105 c 0
 278 75 305 53 336 43 c 0
 351 38 360 37 387 37 c 0
 414 38 431 40 444 44 c 0
 472 51 492 68 498 93 c 0
 500 97 501 100 504 102 c 0
 515 113 544 123 573 124 c 0
 589 124 598 123 605 120 c 0
 611 117 613 113 610 105 c 0
 605 85 589 65 564 49 c 0
 511 13 417 -7 318 -5 c 0
 290 -4 277 -3 257 2 c 0
 224 10 201 24 179 44 c 0
 173 51 166 60 163 65 c 0
 147 89 135 123 131 159 c 0
 129 173 129 221 131 239 c 0
 137 297 151 359 167 404 c 0
 200 490 247 549 315 583 c 0
 352 601 398 614 446 618 c 0
EndSplineSet
EndChar

StartChar: f
Encoding: 102 102 68
Width: 596
Flags: HW
LayerCount: 2
Fore
SplineSet
471 822 m 0
 508 826 560 823 593 815 c 0
 651 802 685 774 696 730 c 0
 700 713 700 684 695 676 c 0
 691 667 672 657 646 652 c 0
 637 650 630 650 617 650 c 0
 599 649 592 651 587 656 c 0
 584 658 584 659 585 667 c 0
 586 681 585 703 583 712 c 0
 579 727 569 744 558 753 c 0
 536 771 508 780 468 782 c 2
 452 782 l 1
 443 779 l 2
 396 761 352 706 324 633 c 0
 318 616 309 587 304 565 c 0
 301 551 213 71 209 46 c 1
 209 42 l 1
 256 42 l 2
 304 42 313 41 321 38 c 0
 326 35 329 31 327 27 c 0
 322 18 301 7 273 2 c 0
 264 1 254 1 127 1 c 0
 -2 1 -11 1 -16 2 c 0
 -23 4 -29 8 -29 11 c 0
 -29 21 -8 33 23 39 c 0
 31 41 38 41 66 42 c 2
 98 42 l 1
 141 284 l 2
 166 417 187 535 190 546 c 0
 207 628 240 693 284 738 c 0
 328 784 396 815 471 822 c 0
351 451 m 0
 355 451 404 452 460 452 c 0
 553 451 561 451 566 450 c 0
 573 447 578 443 578 439 c 0
 578 430 556 419 526 413 c 0
 516 411 515 411 415 410 c 0
 347 410 311 410 307 411 c 0
 293 413 286 419 290 425 c 0
 295 436 321 447 351 451 c 0
EndSplineSet
EndChar

StartChar: g
Encoding: 103 103 69
Width: 703
Flags: HW
LayerCount: 2
Fore
SplineSet
452 617 m 0
 470 619 508 619 534 618 c 0
 568 616 593 612 618 606 c 0
 630 603 632 603 636 604 c 0
 669 617 716 617 722 605 c 0
 723 602 715 562 660 259 c 0
 606 -41 598 -85 595 -93 c 0
 583 -125 551 -154 506 -173 c 0
 445 -200 374 -211 281 -210 c 0
 234 -209 207 -207 178 -200 c 0
 153 -195 125 -183 110 -173 c 0
 102 -167 87 -153 83 -146 c 0
 74 -130 70 -111 73 -96 c 0
 74 -90 80 -84 91 -79 c 0
 108 -71 129 -67 153 -67 c 0
 171 -66 178 -68 183 -73 c 0
 186 -76 186 -76 185 -85 c 0
 183 -122 208 -148 258 -160 c 0
 282 -166 310 -169 354 -168 c 0
 398 -167 415 -164 437 -154 c 0
 457 -144 476 -124 482 -105 c 0
 483 -102 490 -75 495 -44 c 0
 501 -13 505 12 505 13 c 0
 506 15 505 14 497 12 c 0
 472 6 443 1 416 -1 c 0
 371 -6 315 -6 288 -2 c 0
 242 5 208 20 180 47 c 0
 160 69 146 93 137 128 c 0
 131 153 130 167 130 200 c 0
 129 236 132 260 141 307 c 0
 168 449 230 542 327 586 c 0
 366 603 409 614 452 617 c 0
497 575 m 0
 489 575 470 577 456 578 c 0
 422 578 420 577 398 566 c 0
 369 553 349 533 325 501 c 0
 287 451 262 381 249 288 c 0
 244 258 244 246 244 216 c 0
 244 184 245 170 251 146 c 0
 265 90 300 53 351 40 c 0
 364 37 387 36 417 38 c 0
 458 40 483 47 500 61 c 0
 507 67 514 78 517 85 c 0
 520 92 595 505 595 512 c 0
 595 520 592 531 587 538 c 0
 573 557 542 569 497 575 c 0
EndSplineSet
EndChar

StartChar: h
Encoding: 104 104 70
Width: 703
Flags: HW
LayerCount: 2
Fore
SplineSet
301 818 m 0
 307 819 331 818 336 817 c 0
 342 815 347 810 347 807 c 0
 347 806 339 758 329 702 c 0
 319 647 310 601 310 600 c 1
 311 600 317 601 324 603 c 0
 351 609 379 614 413 617 c 0
 441 619 506 619 523 617 c 0
 569 610 603 595 630 568 c 0
 647 551 660 532 669 503 c 0
 678 475 681 454 680 416 c 0
 680 387 679 374 675 344 c 0
 672 319 619 34 617 28 c 0
 615 23 611 18 602 14 c 0
 568 -2 513 -5 506 9 c 0
 505 11 508 33 531 156 c 0
 545 235 558 307 560 318 c 0
 570 384 569 436 557 476 c 0
 544 520 522 548 486 565 c 0
 463 575 451 579 415 578 c 0
 361 576 334 569 314 552 c 0
 307 547 299 534 297 528 c 0
 297 525 276 413 251 278 c 0
 227 143 206 31 205 28 c 0
 203 23 198 18 189 14 c 0
 155 -2 100 -5 93 9 c 0
 92 11 103 67 163 402 c 2
 234 793 l 1
 239 797 l 2
 243 802 257 809 269 812 c 0
 277 815 288 817 301 818 c 0
EndSplineSet
EndChar

StartChar: i
Encoding: 105 105 71
Width: 379
Flags: HW
LayerCount: 2
Fore
SplineSet
330 737 m 0
 344 739 362 737 370 734 c 0
 378 730 379 724 371 717 c 0
 351 698 275 687 264 703 c 0
 262 707 263 712 269 717 c 0
 278 726 305 735 330 737 c 0
186 613 m 0
 188 614 251 614 325 614 c 0
 453 613 460 613 465 612 c 0
 472 609 476 605 476 601 c 0
 473 592 451 580 422 574 c 0
 416 573 406 573 381 572 c 0
 364 572 349 572 349 571 c 2
 349 571 254 47 253 44 c 2
 253 42 l 1
 301 42 l 2
 338 42 350 42 355 41 c 0
 363 39 368 37 371 33 c 0
 377 24 355 10 321 3 c 2
 309 1 l 1
 171 1 l 2
 42 1 33 1 28 2 c 0
 11 7 12 19 34 29 c 0
 38 31 46 34 51 35 c 0
 69 41 77 41 111 42 c 2
 142 42 l 1
 142 45 l 2
 143 46 164 165 190 307 c 0
 216 449 238 568 239 569 c 2
 239 572 l 1
 190 572 l 2
 152 572 141 572 136 573 c 0
 128 575 123 579 121 582 c 0
 120 585 120 585 122 589 c 0
 127 599 157 611 186 613 c 0
EndSplineSet
EndChar

StartChar: j
Encoding: 106 106 72
Width: 493
Flags: HW
LayerCount: 2
Fore
SplineSet
488 737 m 0
 502 739 520 737 528 734 c 0
 536 730 537 724 529 717 c 0
 509 698 434 687 423 703 c 0
 421 707 422 712 428 717 c 0
 437 726 463 735 488 737 c 0
341 613 m 0
 345 613 408 614 482 614 c 0
 608 614 618 613 623 612 c 0
 635 608 637 602 630 595 c 0
 622 587 605 579 583 575 c 0
 574 573 568 573 540 572 c 2
 508 572 l 1
 463 327 l 2
 418 79 414 60 409 37 c 0
 390 -39 361 -99 323 -138 c 0
 290 -173 245 -196 191 -206 c 0
 139 -215 96 -208 65 -189 c 0
 48 -178 31 -159 23 -140 c 0
 5 -100 -1 -43 7 24 c 0
 10 49 15 78 17 81 c 0
 21 90 40 98 66 104 c 0
 82 107 108 108 117 105 c 0
 124 103 129 99 129 95 c 0
 129 94 128 85 126 75 c 0
 116 12 114 -31 121 -72 c 0
 123 -85 128 -104 133 -115 c 0
 142 -137 163 -158 181 -165 c 2
 186 -167 l 1
 193 -163 l 2
 208 -153 219 -141 232 -124 c 0
 264 -81 287 -25 302 53 c 0
 304 61 325 183 351 321 c 2
 397 572 l 1
 350 572 l 2
 301 572 293 574 285 577 c 0
 280 580 277 584 279 588 c 0
 285 599 310 609 341 613 c 0
EndSplineSet
EndChar

StartChar: k
Encoding: 107 107 73
Width: 659
Flags: HW
LayerCount: 2
Fore
SplineSet
301 818 m 0
 307 819 331 818 336 817 c 0
 342 815 347 810 347 807 c 0
 347 806 329 711 309 596 c 0
 289 481 271 388 271 387 c 2
 271 387 352 440 449 503 c 0
 549 570 629 621 634 623 c 0
 649 630 673 635 693 635 c 0
 707 635 715 634 721 631 c 0
 728 628 729 621 723 616 c 0
 722 614 649 566 561 509 c 0
 407 409 401 404 402 402 c 0
 405 397 616 36 617 33 c 0
 619 30 619 30 618 27 c 0
 613 18 592 7 565 2 c 0
 559 1 550 1 540 1 c 0
 522 0 514 2 509 7 c 0
 507 9 462 86 409 178 c 2
 311 345 l 1
 286 328 l 2
 272 319 259 310 258 310 c 0
 257 309 246 252 231 169 c 0
 217 88 206 28 205 26 c 0
 199 15 164 2 132 0 c 0
 112 -1 96 3 93 9 c 0
 92 11 103 67 163 402 c 2
 234 793 l 1
 239 797 l 2
 243 802 257 809 269 812 c 0
 277 815 288 817 301 818 c 0
EndSplineSet
EndChar

StartChar: l
Encoding: 108 108 74
Width: 379
Flags: HW
LayerCount: 2
Fore
SplineSet
345 818 m 0
 368 820 387 817 390 810 c 0
 392 808 387 774 322 419 c 0
 283 205 250 29 250 28 c 0
 246 18 224 7 197 2 c 0
 184 0 158 0 150 2 c 0
 143 4 137 8 137 12 c 0
 137 16 278 787 280 792 c 0
 282 797 286 801 296 805 c 0
 308 811 330 817 345 818 c 0
EndSplineSet
EndChar

StartChar: m
Encoding: 109 109 75
Width: 987
Flags: HW
LayerCount: 2
Fore
SplineSet
417 617 m 0
 436 619 474 619 487 617 c 0
 534 609 570 586 592 549 c 2
 597 540 l 1
 605 548 l 2
 645 585 699 608 764 617 c 0
 782 619 820 619 835 617 c 0
 871 611 897 599 920 577 c 0
 925 571 932 562 935 558 c 0
 967 509 974 434 957 336 c 0
 950 291 903 32 901 28 c 0
 899 23 895 18 886 14 c 0
 852 -2 797 -5 790 9 c 0
 789 11 792 33 815 156 c 0
 849 344 849 346 852 385 c 0
 856 444 846 498 824 532 c 0
 814 547 795 563 779 570 c 0
 772 573 759 578 755 578 c 0
 752 578 733 568 724 560 c 0
 693 537 665 497 643 449 c 0
 632 422 618 378 611 342 c 0
 609 334 596 261 582 180 c 0
 568 98 554 31 553 28 c 0
 551 23 547 18 538 14 c 0
 504 -2 448 -5 441 9 c 0
 440 11 444 33 467 156 c 0
 501 344 501 346 504 385 c 0
 508 444 498 498 476 532 c 0
 466 547 447 563 430 570 c 0
 407 580 384 579 360 566 c 0
 325 546 299 506 285 457 c 0
 283 449 268 368 244 239 c 0
 224 125 206 31 205 28 c 0
 203 23 198 18 189 14 c 0
 155 -2 100 -5 93 9 c 0
 92 11 99 53 144 299 c 0
 178 486 198 587 199 589 c 0
 207 604 261 618 291 613 c 0
 305 611 311 606 309 598 c 2
 308 593 l 1
 314 596 l 2
 338 605 381 614 417 617 c 0
EndSplineSet
EndChar

StartChar: n
Encoding: 110 110 76
Width: 703
Flags: HW
LayerCount: 2
Fore
SplineSet
455 618 m 0
 458 619 472 619 486 618 c 0
 530 618 559 612 589 598 c 0
 629 578 654 548 669 503 c 0
 678 475 681 454 680 416 c 0
 680 387 679 374 675 344 c 0
 672 319 619 34 617 28 c 0
 615 23 611 18 602 14 c 0
 568 -2 513 -5 506 9 c 0
 505 11 508 33 531 156 c 0
 564 339 565 347 567 390 c 0
 569 467 547 525 505 555 c 0
 489 565 468 575 451 577 c 0
 435 579 408 577 392 572 c 0
 343 560 300 512 284 452 c 0
 282 446 264 349 244 237 c 0
 224 124 206 31 205 28 c 0
 203 23 198 18 189 14 c 0
 155 -2 100 -5 93 9 c 0
 92 11 99 53 144 299 c 0
 178 486 198 587 199 589 c 0
 202 596 216 603 234 608 c 0
 260 615 291 616 303 610 c 0
 309 607 310 604 309 595 c 2
 307 587 l 1
 312 589 l 2
 354 605 399 615 455 618 c 0
EndSplineSet
EndChar

StartChar: o
Encoding: 111 111 77
Width: 780
Flags: HW
LayerCount: 2
Fore
SplineSet
495 618 m 0
 506 619 558 618 572 617 c 0
 660 607 721 573 754 517 c 0
 781 470 788 410 777 334 c 0
 766 249 734 174 688 121 c 0
 635 59 556 18 456 2 c 0
 424 -3 406 -4 370 -4 c 0
 334 -4 318 -3 291 2 c 0
 202 18 146 62 122 135 c 0
 105 187 106 256 124 332 c 0
 154 452 219 535 319 579 c 0
 372 603 422 613 495 618 c 0
502 577 m 0
 490 578 466 578 456 577 c 0
 426 575 402 566 378 553 c 0
 303 512 250 428 231 316 c 0
 209 197 232 113 299 69 c 0
 332 47 379 36 426 37 c 0
 453 38 470 42 493 51 c 0
 559 77 613 140 642 225 c 0
 664 287 674 364 667 419 c 0
 655 511 596 567 502 577 c 0
EndSplineSet
EndChar

StartChar: p
Encoding: 112 112 78
Width: 681
Flags: HW
LayerCount: 2
Fore
SplineSet
434 617 m 0
 458 620 499 619 517 616 c 0
 565 609 601 593 629 566 c 0
 646 548 660 527 669 498 c 0
 678 470 681 448 680 411 c 0
 680 365 673 319 660 267 c 0
 638 180 598 111 545 68 c 0
 490 24 411 -2 329 -5 c 0
 286 -6 240 0 212 11 c 0
 206 13 204 13 203 13 c 1
 203 12 195 -29 186 -79 c 0
 177 -129 170 -172 169 -174 c 0
 166 -186 146 -197 115 -203 c 0
 101 -205 76 -205 68 -203 c 0
 61 -201 55 -196 55 -193 c 0
 55 -192 87 -16 126 198 c 0
 172 451 198 588 199 589 c 0
 202 596 216 603 234 608 c 0
 260 615 291 616 303 610 c 0
 309 607 310 604 309 596 c 0
 308 593 308 591 308 590 c 1
 309 590 315 592 322 594 c 0
 356 606 393 614 434 617 c 0
451 574 m 0
 444 576 414 578 408 577 c 0
 407 577 401 576 397 575 c 0
 375 572 351 558 332 540 c 0
 310 517 295 490 285 457 c 0
 281 442 236 197 234 179 c 0
 231 146 237 115 249 93 c 0
 267 62 300 43 343 38 c 0
 380 34 399 38 431 60 c 0
 484 95 525 163 547 251 c 0
 560 303 566 348 566 394 c 0
 567 430 564 450 556 476 c 0
 539 530 503 563 451 574 c 0
EndSplineSet
EndChar

StartChar: q
Encoding: 113 113 79
Width: 681
Flags: HW
LayerCount: 2
Fore
SplineSet
451 618 m 0
 453 619 462 620 472 620 c 0
 516 620 557 613 587 601 c 2
 598 597 l 1
 601 599 l 2
 606 602 615 605 625 608 c 0
 658 617 695 616 700 605 c 0
 701 602 693 558 632 216 c 0
 593 4 561 -172 560 -174 c 0
 558 -180 553 -186 542 -191 c 0
 509 -206 455 -209 447 -196 c 0
 446 -194 448 -183 466 -85 c 0
 477 -25 485 24 485 25 c 1
 484 25 479 22 472 20 c 0
 424 3 366 -6 313 -5 c 0
 261 -3 219 8 186 31 c 0
 173 40 155 58 147 71 c 0
 130 96 119 128 115 166 c 0
 113 181 113 230 115 249 c 0
 129 374 168 470 231 530 c 0
 243 542 254 551 271 562 c 0
 314 591 376 611 435 617 c 0
 441 618 449 618 451 618 c 0
451 577 m 0
 421 580 406 577 382 565 c 0
 337 543 296 494 269 433 c 0
 251 390 235 326 228 265 c 0
 226 245 226 198 228 183 c 0
 234 136 248 101 273 77 c 0
 285 66 295 58 310 50 c 0
 332 40 351 36 376 37 c 0
 399 38 409 41 426 49 c 0
 466 69 497 112 510 164 c 0
 513 174 555 404 558 426 c 0
 559 431 559 444 559 456 c 0
 559 472 559 477 557 486 c 0
 546 538 509 570 451 577 c 0
EndSplineSet
EndChar

StartChar: r
Encoding: 114 114 80
Width: 618
Flags: HW
LayerCount: 2
Fore
SplineSet
437 618 m 0
 446 619 515 618 527 617 c 0
 600 611 650 591 664 562 c 0
 670 551 672 535 669 528 c 0
 665 519 645 510 621 505 c 0
 595 500 571 501 560 507 c 0
 557 509 556 510 556 522 c 0
 555 528 555 533 553 536 c 0
 546 552 530 562 501 570 c 0
 478 575 463 577 426 577 c 0
 395 577 393 576 386 574 c 0
 339 562 300 516 285 457 c 0
 283 448 213 73 209 46 c 1
 209 42 l 1
 256 42 l 2
 304 42 313 41 321 38 c 0
 326 35 329 31 327 27 c 0
 322 18 301 7 273 2 c 0
 264 1 254 1 127 1 c 0
 -2 1 -11 1 -16 2 c 0
 -23 4 -29 8 -29 11 c 0
 -29 21 -8 33 23 39 c 0
 31 41 38 41 66 42 c 2
 98 42 l 1
 147 314 l 2
 179 492 198 587 199 589 c 0
 207 604 261 618 291 613 c 0
 306 611 311 606 309 597 c 0
 309 595 308 592 308 592 c 1
 308 592 317 595 326 598 c 0
 360 609 388 614 437 618 c 0
EndSplineSet
EndChar

StartChar: s
Encoding: 115 115 81
Width: 703
Flags: HW
LayerCount: 2
Fore
SplineSet
451 618 m 0
 465 619 515 619 532 618 c 0
 634 613 696 586 707 542 c 0
 709 535 709 524 708 519 c 0
 707 514 699 508 689 503 c 0
 672 496 650 490 628 490 c 0
 615 490 607 492 601 495 c 0
 595 498 595 499 595 509 c 0
 595 520 593 530 587 538 c 0
 573 557 542 569 496 575 c 0
 478 577 410 577 397 575 c 0
 378 572 362 568 347 559 c 0
 313 540 289 505 280 464 c 0
 278 452 278 430 280 421 c 0
 287 393 307 372 341 356 c 0
 369 342 396 335 444 328 c 0
 482 322 504 317 530 308 c 0
 593 288 631 257 643 215 c 0
 645 207 645 203 645 190 c 0
 646 174 644 164 638 147 c 0
 615 78 557 33 462 9 c 0
 415 -2 372 -6 312 -5 c 0
 275 -4 262 -3 238 0 c 0
 162 10 118 36 109 73 c 0
 107 80 107 90 108 95 c 0
 111 106 138 119 169 123 c 0
 182 125 204 124 211 121 c 0
 214 120 217 118 218 117 c 0
 221 114 221 112 220 105 c 0
 219 85 230 68 254 57 c 0
 271 48 291 43 319 39 c 0
 338 37 405 37 420 39 c 0
 459 46 490 67 512 103 c 0
 530 134 536 170 529 197 c 0
 520 229 490 254 443 270 c 0
 420 278 403 283 367 288 c 0
 322 294 286 303 257 315 c 0
 178 348 149 398 171 467 c 0
 175 478 188 502 196 513 c 0
 204 524 223 545 234 554 c 0
 284 591 363 614 451 618 c 0
EndSplineSet
EndChar

StartChar: t
Encoding: 116 116 82
Width: 493
Flags: HW
LayerCount: 2
Fore
SplineSet
402 818 m 0
 408 819 432 818 437 817 c 0
 443 815 449 810 449 807 c 0
 449 805 415 619 414 616 c 0
 414 614 418 614 477 614 c 0
 546 613 547 613 554 607 c 0
 558 604 558 600 553 595 c 0
 545 587 528 579 506 575 c 0
 496 573 492 573 451 572 c 2
 407 572 l 1
 358 309 l 2
 331 164 310 45 310 44 c 0
 310 42 313 42 357 42 c 0
 405 42 414 41 422 38 c 0
 427 35 430 31 428 27 c 0
 423 18 403 7 375 2 c 0
 366 1 355 1 228 1 c 0
 99 1 90 1 85 2 c 0
 78 4 73 8 73 11 c 0
 73 21 93 33 124 39 c 0
 132 41 139 41 167 42 c 2
 200 42 l 1
 248 307 l 1
 296 572 l 1
 237 572 l 2
 201 572 174 572 170 573 c 0
 157 575 150 582 154 588 c 0
 158 597 176 605 201 611 c 0
 213 613 214 613 258 614 c 2
 303 614 l 1
 303 616 l 2
 304 618 311 659 319 706 c 2
 336 793 l 1
 340 797 l 2
 344 802 359 809 371 812 c 0
 379 815 389 817 402 818 c 0
EndSplineSet
EndChar

StartChar: u
Encoding: 117 117 83
Width: 703
Flags: HW
LayerCount: 2
Fore
SplineSet
263 613 m 0
 279 615 295 613 303 610 c 0
 311 606 314 620 283 450 c 0
 255 302 251 275 249 244 c 0
 243 157 264 91 310 59 c 0
 326 49 348 40 365 38 c 0
 381 36 407 37 423 42 c 0
 474 55 517 106 532 167 c 0
 534 174 552 271 572 383 c 0
 596 515 610 587 611 589 c 0
 614 596 629 603 647 608 c 0
 679 617 717 615 722 605 c 0
 723 602 717 568 671 317 c 0
 643 160 618 31 617 28 c 0
 615 23 611 18 602 14 c 0
 574 1 529 -4 512 4 c 0
 506 7 505 10 506 19 c 2
 508 28 l 1
 508 28 502 26 495 23 c 0
 463 11 425 2 383 -3 c 0
 359 -5 309 -5 293 -3 c 0
 246 4 212 19 185 46 c 0
 168 63 155 83 146 112 c 0
 139 136 135 156 134 188 c 0
 134 210 135 232 139 262 c 0
 142 289 197 586 199 589 c 0
 205 599 235 611 263 613 c 0
EndSplineSet
EndChar

StartChar: v
Encoding: 118 118 84
Width: 659
Flags: HW
LayerCount: 2
Fore
SplineSet
238 613 m 0
 261 616 282 613 286 606 c 0
 288 604 294 534 316 340 c 0
 331 195 345 76 345 75 c 2
 345 75 400 191 468 332 c 0
 576 561 590 591 593 593 c 0
 618 615 693 621 700 604 c 0
 701 602 695 587 565 313 c 0
 412 -10 428 20 413 13 c 0
 404 9 394 6 379 3 c 0
 370 1 364 1 315 0 c 0
 260 0 253 0 244 4 c 0
 242 5 239 7 239 8 c 0
 238 10 229 84 206 295 c 0
 189 451 175 581 175 583 c 0
 175 587 175 588 178 592 c 0
 188 601 212 610 238 613 c 0
EndSplineSet
EndChar

StartChar: w
Encoding: 119 119 85
Width: 1024
Flags: HW
LayerCount: 2
Fore
SplineSet
201 613 m 0
 225 615 243 612 247 605 c 0
 247 603 263 484 280 338 c 0
 298 193 312 73 312 73 c 2
 312 72 369 189 439 332 c 0
 550 559 566 591 569 594 c 0
 577 600 585 603 600 608 c 0
 633 617 671 616 676 605 c 0
 676 604 692 483 710 338 c 0
 727 192 742 73 742 73 c 1
 742 73 799 189 868 331 c 0
 963 528 994 589 997 592 c 0
 1004 600 1025 608 1047 612 c 0
 1061 614 1086 614 1094 612 c 0
 1100 610 1106 605 1106 603 c 0
 1106 601 827 29 825 24 c 0
 821 19 807 11 792 6 c 0
 770 1 769 1 709 1 c 0
 658 1 651 1 646 2 c 0
 643 3 639 5 637 7 c 2
 634 10 l 1
 609 210 l 2
 596 320 585 410 585 410 c 2
 585 411 541 324 490 218 c 0
 419 74 396 26 393 23 c 0
 389 18 373 10 362 7 c 0
 342 1 339 1 283 0 c 0
 248 0 227 0 223 1 c 0
 213 2 207 5 205 9 c 0
 204 12 134 579 134 585 c 0
 134 592 148 601 166 606 c 0
 174 609 193 613 201 613 c 0
EndSplineSet
EndChar

StartChar: x
Encoding: 120 120 86
Width: 659
Flags: HW
LayerCount: 2
Fore
SplineSet
253 613 m 0
 255 614 262 614 270 613 c 0
 284 613 292 611 296 608 c 0
 298 606 322 560 351 505 c 0
 380 449 405 401 406 400 c 2
 408 397 l 1
 492 493 l 2
 538 545 578 590 581 593 c 0
 603 613 679 622 688 605 c 0
 689 602 689 602 688 599 c 0
 687 598 632 535 566 460 c 0
 499 385 445 324 445 324 c 2
 445 323 479 257 521 177 c 0
 563 96 597 30 597 29 c 0
 597 26 589 18 580 13 c 0
 562 5 541 1 517 1 c 0
 500 0 491 2 487 6 c 0
 485 8 459 59 426 121 c 0
 394 182 368 233 368 233 c 2
 368 234 324 186 273 128 c 0
 218 66 177 20 174 18 c 0
 146 -1 78 -6 71 9 c 0
 70 12 70 13 71 15 c 0
 72 16 130 83 201 163 c 0
 271 242 329 308 329 308 c 1
 329 308 297 370 258 446 c 0
 218 522 186 584 186 585 c 0
 186 590 196 597 208 603 c 0
 219 607 239 612 253 613 c 0
EndSplineSet
EndChar

StartChar: y
Encoding: 121 121 87
Width: 659
Flags: HW
LayerCount: 2
Fore
SplineSet
238 613 m 0
 261 616 282 613 286 606 c 0
 287 604 304 513 326 391 c 0
 348 273 365 177 365 177 c 2
 365 176 416 269 477 383 c 0
 564 545 590 590 593 593 c 0
 616 615 693 622 700 604 c 0
 701 601 696 593 489 211 c 0
 363 -20 276 -181 274 -183 c 0
 267 -190 245 -199 225 -203 c 0
 212 -205 186 -205 178 -203 c 0
 171 -201 166 -197 166 -194 c 0
 166 -192 190 -144 221 -89 c 2
 276 13 l 1
 225 297 l 2
 197 453 175 582 175 584 c 0
 175 587 175 589 178 592 c 0
 188 601 212 610 238 613 c 0
EndSplineSet
EndChar

StartChar: z
Encoding: 122 122 88
Width: 659
Flags: HW
LayerCount: 2
Fore
SplineSet
238 613 m 0
 248 614 675 614 683 613 c 0
 696 611 703 605 699 599 c 0
 699 598 586 472 449 319 c 2
 198 43 l 1
 389 42 l 2
 571 42 581 41 586 40 c 0
 592 38 597 33 597 30 c 0
 597 24 579 12 561 7 c 0
 537 0 556 1 315 0 c 0
 163 0 93 0 89 1 c 0
 75 3 68 9 72 16 c 0
 73 17 187 143 324 296 c 2
 573 572 l 1
 382 572 l 2
 202 572 190 573 185 574 c 0
 174 578 172 585 179 592 c 0
 188 601 212 610 238 613 c 0
EndSplineSet
EndChar

StartChar: braceleft
Encoding: 123 123 89
Width: 371
Flags: HW
LayerCount: 2
Fore
SplineSet
435 859 m 0
 445 860 458 859 466 857 c 0
 473 856 476 854 479 850 c 0
 483 843 470 832 447 825 c 0
 436 821 429 817 419 808 c 0
 411 799 404 790 396 774 c 0
 379 741 367 704 356 646 c 0
 345 589 341 572 334 547 c 0
 325 517 309 482 296 463 c 0
 288 451 270 433 257 424 c 0
 250 420 245 416 245 416 c 1
 245 416 246 415 248 414 c 0
 253 411 263 400 267 394 c 0
 277 381 282 368 286 344 c 0
 287 335 287 326 287 306 c 0
 287 271 286 267 273 187 c 0
 263 129 262 85 269 50 c 0
 274 22 287 8 313 -2 c 0
 324 -5 326 -11 319 -18 c 0
 304 -33 250 -45 223 -38 c 0
 188 -29 165 -7 157 25 c 0
 153 44 152 54 152 85 c 0
 152 116 153 133 160 171 c 0
 161 182 165 201 166 212 c 0
 175 266 176 304 170 339 c 0
 165 363 152 379 134 388 c 0
 130 389 126 391 125 391 c 0
 123 391 116 395 115 397 c 0
 113 401 114 404 119 409 c 0
 124 414 135 420 147 423 c 0
 171 430 189 453 207 495 c 0
 221 527 229 555 243 630 c 0
 254 689 267 727 285 763 c 0
 295 783 302 793 314 806 c 0
 333 824 357 839 389 849 c 0
 405 854 421 858 435 859 c 0
EndSplineSet
EndChar

StartChar: bar
Encoding: 124 124 90
Width: 412
Flags: HW
LayerCount: 2
Fore
SplineSet
361 818 m 0
 384 820 404 817 407 810 c 0
 409 808 403 774 338 419 c 0
 299 205 266 29 266 28 c 0
 262 18 240 7 213 2 c 0
 200 0 174 0 166 2 c 0
 159 4 154 8 154 12 c 0
 154 16 294 787 296 792 c 0
 298 797 302 801 312 805 c 0
 324 811 346 817 361 818 c 0
EndSplineSet
EndChar

StartChar: braceright
Encoding: 125 125 91
Width: 371
Flags: HW
LayerCount: 2
Fore
SplineSet
254 859 m 0
 287 862 319 850 338 830 c 0
 356 810 365 782 364 732 c 0
 364 699 361 681 352 628 c 0
 341 561 339 525 345 489 c 0
 348 472 351 463 358 454 c 0
 366 442 376 434 392 429 c 0
 405 425 410 420 406 414 c 0
 402 407 387 400 369 394 c 0
 360 392 352 387 342 377 c 0
 333 369 324 355 315 337 c 0
 298 303 287 269 275 203 c 0
 272 186 267 164 265 156 c 0
 254 105 235 58 213 30 c 0
 195 4 164 -17 126 -29 c 0
 88 -41 53 -44 37 -36 c 0
 30 -32 29 -27 35 -20 c 0
 40 -15 52 -9 66 -6 c 0
 77 -2 81 0 89 7 c 0
 115 27 139 77 153 143 c 0
 155 151 159 172 162 188 c 0
 175 254 187 292 206 329 c 0
 217 352 225 362 238 375 c 0
 246 384 253 389 262 395 c 2
 274 403 l 1
 268 408 l 2
 255 416 243 431 238 447 c 0
 233 460 229 484 228 506 c 0
 227 535 231 560 239 611 c 0
 248 664 250 683 250 716 c 0
 250 769 243 795 219 811 c 0
 214 814 210 817 205 818 c 0
 194 821 189 823 187 826 c 0
 180 837 215 855 254 859 c 0
EndSplineSet
EndChar

StartChar: asciitilde
Encoding: 126 126 92
Width: 817
Flags: HW
LayerCount: 2
Fore
SplineSet
321 420 m 0
 330 421 390 420 400 419 c 0
 454 413 493 397 510 371 c 0
 515 362 518 354 521 343 c 0
 522 335 522 332 520 307 c 0
 518 271 542 246 588 238 c 0
 602 236 650 236 660 238 c 0
 685 244 708 266 714 293 c 0
 716 302 717 303 722 307 c 0
 742 326 813 335 826 321 c 0
 829 318 829 313 826 303 c 0
 815 272 793 247 756 229 c 0
 706 203 642 193 567 194 c 0
 535 195 525 196 505 199 c 0
 463 207 434 222 419 244 c 0
 414 253 411 260 408 271 c 0
 407 279 407 282 409 307 c 0
 411 343 387 369 341 377 c 0
 329 379 280 379 271 377 c 0
 262 376 250 369 243 364 c 0
 230 353 218 334 214 319 c 0
 213 313 212 311 209 308 c 0
 198 297 163 287 134 287 c 0
 114 287 103 290 101 296 c 0
 98 303 109 327 120 342 c 0
 123 346 130 353 134 358 c 0
 168 390 232 413 303 419 c 0
 310 420 319 420 321 420 c 0
EndSplineSet
EndChar

StartChar: Adieresis
Encoding: 196 196 93
Width: 780
Flags: HW
LayerCount: 2
Fore
SplineSet
470 909 m 0
 481 910 505 909 512 908 c 0
 523 905 529 900 528 894 c 0
 526 889 518 883 507 877 c 0
 485 867 460 861 432 861 c 0
 408 861 398 863 393 870 c 0
 390 874 391 878 397 884 c 0
 408 895 438 905 470 909 c 0
652 909 m 0
 686 913 713 906 711 894 c 0
 709 890 700 883 691 878 c 0
 652 859 588 854 577 870 c 0
 574 874 575 879 581 884 c 0
 592 895 622 906 652 909 c 0
505 818 m 0
 507 819 532 819 562 819 c 0
 620 818 622 818 629 812 c 2
 632 809 l 1
 675 420 l 2
 699 206 718 30 718 29 c 0
 718 26 708 18 700 13 c 0
 668 -2 614 -5 606 8 c 0
 605 10 600 51 588 166 c 0
 578 251 570 322 569 324 c 2
 569 327 l 1
 447 327 l 1
 325 327 l 1
 254 176 l 2
 192 44 181 25 178 22 c 0
 155 2 78 -8 71 10 c 0
 70 12 79 31 253 398 c 0
 353 610 436 787 438 791 c 0
 441 796 443 798 447 801 c 0
 458 809 485 816 505 818 c 0
544 557 m 0
 534 658 524 741 523 742 c 0
 523 743 495 687 434 557 c 0
 385 455 345 370 345 370 c 2
 345 369 393 369 455 369 c 2
 565 369 l 1
 565 371 l 2
 564 372 555 456 544 557 c 0
EndSplineSet
EndChar

StartChar: Aring
Encoding: 197 197 94
Width: 780
Flags: HW
LayerCount: 2
Fore
SplineSet
569 1033 m 0
 592 1035 609 1034 627 1029 c 0
 661 1021 678 998 676 962 c 0
 674 932 663 906 645 888 c 0
 628 871 606 860 575 854 c 0
 551 849 531 848 512 851 c 0
 489 854 476 859 465 870 c 0
 457 878 452 889 449 901 c 0
 446 917 449 943 457 963 c 0
 466 987 485 1007 509 1018 c 0
 526 1025 549 1031 569 1033 c 0
575 1010 m 0
 566 1012 556 1011 551 1008 c 0
 534 1000 520 980 514 954 c 0
 502 906 520 872 559 872 c 0
 566 872 568 873 573 876 c 0
 595 887 611 917 613 952 c 0
 614 983 601 1005 575 1010 c 0
505 818 m 0
 507 819 532 819 562 819 c 0
 620 818 622 818 629 812 c 2
 632 809 l 1
 675 420 l 2
 699 206 718 30 718 29 c 0
 718 26 708 18 700 13 c 0
 668 -2 614 -5 606 8 c 0
 605 10 600 51 588 166 c 0
 578 251 570 322 569 324 c 2
 569 327 l 1
 447 327 l 1
 325 327 l 1
 254 176 l 2
 192 44 181 25 178 22 c 0
 155 2 78 -8 71 10 c 0
 70 12 79 31 253 398 c 0
 353 610 436 787 438 791 c 0
 441 796 443 798 447 801 c 0
 458 809 485 816 505 818 c 0
544 557 m 0
 534 658 524 741 523 742 c 0
 523 743 495 687 434 557 c 0
 385 455 345 370 345 370 c 2
 345 369 393 369 455 369 c 2
 565 369 l 1
 565 371 l 2
 564 372 555 456 544 557 c 0
EndSplineSet
EndChar

StartChar: AE
Encoding: 198 198 95
Width: 942
Flags: HW
LayerCount: 2
Fore
SplineSet
586 818 m 0
 588 819 683 819 797 819 c 0
 996 819 1005 818 1010 817 c 0
 1016 815 1021 810 1021 807 c 0
 1021 801 1003 789 985 784 c 0
 961 777 972 778 813 777 c 2
 668 777 l 1
 668 774 l 2
 666 768 605 433 605 432 c 0
 605 431 655 431 749 431 c 0
 883 431 893 430 898 429 c 0
 910 425 912 419 905 411 c 0
 897 404 881 397 858 392 c 0
 849 390 846 390 723 389 c 0
 653 389 597 389 597 388 c 2
 597 388 583 312 566 219 c 0
 550 127 536 49 535 46 c 2
 535 42 l 1
 698 42 l 2
 855 42 863 41 868 40 c 0
 874 38 880 33 880 30 c 0
 880 24 862 12 844 7 c 0
 820 0 836 1 631 0 c 0
 503 0 441 0 437 1 c 0
 428 2 421 6 419 9 c 0
 418 11 421 34 446 167 c 0
 461 252 474 323 475 324 c 2
 475 327 l 1
 416 327 l 1
 356 327 l 1
 268 175 l 2
 205 65 180 23 178 20 c 0
 153 0 78 -7 71 10 c 0
 70 13 74 20 296 406 c 2
 523 797 l 1
 528 801 l 2
 539 809 566 816 586 818 c 0
506 497 m 2
 519 568 529 625 529 626 c 1
 528 626 382 372 381 370 c 0
 381 369 402 369 432 369 c 2
 483 369 l 1
 506 497 l 2
EndSplineSet
EndChar

StartChar: Ccedilla
Encoding: 199 199 96
Width: 744
Flags: HW
LayerCount: 2
Fore
SplineSet
521 823 m 0
 529 824 601 823 618 822 c 0
 674 817 716 807 751 790 c 0
 783 774 802 751 808 722 c 0
 810 712 809 695 807 690 c 0
 802 682 784 673 759 668 c 0
 750 666 744 666 729 666 c 0
 707 666 702 666 697 672 c 2
 694 674 l 1
 695 685 l 2
 695 699 694 709 688 720 c 0
 681 735 667 748 647 758 c 0
 612 774 567 782 504 782 c 0
 490 782 487 782 479 779 c 0
 449 769 412 741 386 709 c 0
 330 638 296 552 271 417 c 0
 248 294 249 214 272 145 c 0
 287 100 313 68 350 50 c 0
 375 38 392 35 443 38 c 0
 497 41 532 51 558 71 c 0
 575 84 587 101 592 119 c 0
 596 130 596 131 601 135 c 0
 614 145 641 154 669 155 c 0
 689 155 700 153 705 147 c 0
 707 146 708 143 708 142 c 0
 708 139 702 123 698 116 c 0
 675 71 619 34 534 14 c 0
 519 10 491 4 482 3 c 0
 479 3 476 2 476 2 c 2
 475 2 476 -2 477 -6 c 0
 482 -24 477 -48 463 -66 c 0
 447 -90 414 -107 369 -115 c 0
 350 -118 319 -119 310 -116 c 0
 303 -114 298 -109 298 -106 c 0
 298 -97 315 -87 340 -81 c 0
 350 -79 350 -78 354 -74 c 0
 362 -63 367 -48 366 -34 c 0
 365 -24 360 -13 353 -8 c 0
 349 -5 349 -5 336 -5 c 0
 277 -1 229 20 195 59 c 0
 168 91 150 138 143 199 c 0
 141 217 141 273 143 296 c 0
 149 364 166 452 182 510 c 0
 219 635 277 723 355 772 c 0
 399 799 454 817 507 822 c 0
 513 823 519 823 521 823 c 0
EndSplineSet
EndChar

StartChar: Odieresis
Encoding: 214 214 97
Width: 942
Flags: HW
LayerCount: 2
Fore
SplineSet
551 909 m 0
 562 910 586 909 593 908 c 0
 604 905 610 900 609 894 c 0
 607 889 599 883 588 877 c 0
 566 867 541 861 513 861 c 0
 489 861 479 863 474 870 c 0
 471 874 472 878 478 884 c 0
 489 895 519 905 551 909 c 0
733 909 m 0
 767 913 794 906 792 894 c 0
 790 890 781 883 772 878 c 0
 733 859 668 854 657 870 c 0
 654 874 656 879 662 884 c 0
 673 895 703 906 733 909 c 0
612 823 m 0
 614 824 630 824 648 823 c 0
 693 823 723 820 760 811 c 0
 866 784 931 721 956 622 c 0
 971 557 970 477 948 385 c 0
 916 242 847 136 745 73 c 0
 684 35 604 8 521 -1 c 0
 380 -16 263 13 197 82 c 0
 139 142 116 234 129 352 c 0
 141 463 177 565 230 638 c 0
 244 658 256 671 274 689 c 0
 312 727 352 753 403 776 c 0
 458 801 528 818 593 822 c 0
 602 823 610 823 612 823 c 0
621 781 m 0
 595 783 566 782 542 778 c 0
 482 768 427 739 379 691 c 0
 310 622 265 523 247 399 c 0
 229 279 243 190 290 127 c 0
 335 68 416 34 508 37 c 0
 557 39 598 49 638 72 c 0
 735 124 803 228 835 369 c 0
 859 472 860 559 837 625 c 0
 805 718 731 772 621 781 c 0
EndSplineSet
EndChar

StartChar: Oslash
Encoding: 216 216 98
Width: 942
Flags: HW
LayerCount: 2
Fore
SplineSet
612 823 m 0
 620 824 681 823 694 822 c 0
 754 816 805 801 845 777 c 2
 850 774 l 1
 863 787 l 2
 878 802 884 806 899 811 c 0
 934 822 976 821 981 810 c 0
 982 807 982 806 980 804 c 0
 980 803 962 784 943 764 c 0
 923 744 906 726 906 726 c 2
 907 725 909 721 913 716 c 0
 923 702 934 684 942 666 c 0
 972 594 975 500 948 385 c 0
 916 242 847 136 745 73 c 0
 684 35 604 8 521 -1 c 0
 433 -10 351 -3 289 23 c 0
 274 29 257 36 248 42 c 2
 242 45 l 1
 227 31 l 2
 214 19 212 16 205 13 c 0
 166 -4 106 -4 110 14 c 0
 111 15 124 31 147 54 c 0
 167 76 184 93 184 93 c 2
 184 94 182 98 178 103 c 0
 166 119 155 138 147 161 c 0
 123 220 119 293 133 383 c 0
 147 482 182 572 230 638 c 0
 244 658 256 671 274 689 c 0
 312 727 352 753 403 776 c 0
 458 801 528 818 593 822 c 0
 602 823 610 823 612 823 c 0
621 781 m 0
 595 783 566 782 542 778 c 0
 482 768 427 739 379 691 c 0
 317 629 275 542 252 432 c 0
 235 343 235 265 252 205 c 0
 255 194 262 174 263 174 c 0
 264 174 550 466 779 702 c 1
 787 710 l 1
 779 717 l 2
 740 754 686 776 621 781 c 0
830 641 m 0
 829 644 828 646 828 646 c 2
 827 646 709 525 566 378 c 2
 304 111 l 1
 308 105 l 2
 314 99 332 86 343 79 c 0
 353 72 377 60 390 55 c 0
 450 32 529 31 589 50 c 0
 674 78 746 146 793 242 c 0
 837 334 861 470 851 560 c 0
 847 591 839 622 830 641 c 0
EndSplineSet
EndChar

StartChar: Udieresis
Encoding: 220 220 99
Width: 825
Flags: HW
LayerCount: 2
Fore
SplineSet
493 909 m 0
 504 910 528 909 535 908 c 0
 546 905 552 900 551 894 c 0
 549 889 540 883 529 877 c 0
 507 867 483 861 455 861 c 0
 431 861 421 863 416 870 c 0
 413 874 414 878 420 884 c 0
 431 895 461 905 493 909 c 0
675 909 m 0
 709 913 735 906 733 894 c 0
 731 890 723 883 714 878 c 0
 675 859 610 854 599 870 c 0
 596 874 597 879 603 884 c 0
 614 895 645 906 675 909 c 0
301 818 m 0
 307 819 331 818 336 817 c 0
 342 815 347 810 347 807 c 0
 347 806 325 683 298 535 c 0
 270 385 248 259 247 253 c 0
 245 237 245 209 246 194 c 0
 249 157 260 127 278 103 c 0
 304 68 345 47 399 39 c 0
 416 37 463 37 478 39 c 0
 501 43 520 49 539 58 c 0
 606 93 653 163 671 254 c 0
 672 260 694 384 721 528 c 2
 769 793 l 1
 773 797 l 2
 780 805 800 813 822 817 c 0
 836 819 861 819 869 817 c 0
 876 815 882 810 882 807 c 0
 882 804 786 279 782 263 c 0
 769 197 738 139 694 97 c 0
 660 64 614 37 561 20 c 0
 531 11 491 2 457 -1 c 0
 400 -8 339 -5 295 4 c 0
 238 16 195 42 168 77 c 0
 150 101 139 128 133 163 c 0
 131 179 131 219 133 237 c 0
 134 243 157 370 184 520 c 2
 234 793 l 1
 239 797 l 2
 243 802 257 809 269 812 c 0
 277 815 288 817 301 818 c 0
EndSplineSet
EndChar

StartChar: agrave
Encoding: 224 224 100
Width: 703
Flags: HW
LayerCount: 2
Fore
SplineSet
404 696 m 0
 409 696 418 697 422 696 c 0
 431 696 588 676 595 675 c 0
 613 671 612 659 593 649 c 0
 578 641 557 636 535 635 c 0
 521 635 517 635 436 645 c 0
 389 651 349 657 347 658 c 0
 344 658 341 661 340 663 c 0
 336 667 337 671 343 676 c 0
 353 685 379 694 404 696 c 0
456 618 m 0
 510 622 570 615 609 599 c 2
 617 596 l 1
 622 598 l 2
 652 615 715 619 722 605 c 0
 723 602 717 568 671 317 c 0
 643 160 618 31 617 28 c 0
 615 23 611 18 602 14 c 0
 574 1 529 -4 512 4 c 0
 506 7 505 10 506 19 c 2
 508 28 l 1
 508 28 502 26 496 23 c 0
 465 12 423 1 382 -3 c 0
 354 -5 307 -5 288 -2 c 0
 242 5 208 20 180 47 c 0
 160 69 146 93 137 128 c 0
 131 153 130 167 130 200 c 0
 129 236 132 260 141 307 c 0
 166 439 221 528 307 575 c 0
 348 598 404 614 456 618 c 0
473 575 m 0
 468 575 455 577 445 578 c 0
 422 578 418 576 398 566 c 0
 369 553 349 533 325 501 c 0
 287 451 262 381 249 288 c 0
 244 258 244 246 244 216 c 0
 244 192 244 185 246 173 c 0
 250 148 256 128 264 110 c 0
 286 67 328 39 375 37 c 0
 415 35 445 45 474 70 c 0
 501 92 522 128 532 167 c 0
 535 181 580 421 581 434 c 0
 583 448 582 470 579 482 c 0
 570 533 532 566 473 575 c 0
EndSplineSet
EndChar

StartChar: aacute
Encoding: 225 225 101
Width: 703
Flags: HW
LayerCount: 2
Fore
SplineSet
571 696 m 0
 588 698 608 694 611 688 c 0
 616 678 595 664 564 658 c 0
 558 657 515 651 469 646 c 0
 392 637 383 636 367 636 c 0
 351 636 348 636 343 638 c 0
 335 641 332 645 334 650 c 0
 339 658 358 669 383 673 c 0
 390 675 558 695 571 696 c 0
456 618 m 0
 510 622 570 615 609 599 c 2
 617 596 l 1
 622 598 l 2
 652 615 715 619 722 605 c 0
 723 602 717 568 671 317 c 0
 643 160 618 31 617 28 c 0
 615 23 611 18 602 14 c 0
 574 1 529 -4 512 4 c 0
 506 7 505 10 506 19 c 2
 508 28 l 1
 508 28 502 26 496 23 c 0
 465 12 423 1 382 -3 c 0
 354 -5 307 -5 288 -2 c 0
 242 5 208 20 180 47 c 0
 160 69 146 93 137 128 c 0
 131 153 130 167 130 200 c 0
 129 236 132 260 141 307 c 0
 166 439 221 528 307 575 c 0
 348 598 404 614 456 618 c 0
473 575 m 0
 468 575 455 577 445 578 c 0
 422 578 418 576 398 566 c 0
 369 553 349 533 325 501 c 0
 287 451 262 381 249 288 c 0
 244 258 244 246 244 216 c 0
 244 192 244 185 246 173 c 0
 250 148 256 128 264 110 c 0
 286 67 328 39 375 37 c 0
 415 35 445 45 474 70 c 0
 501 92 522 128 532 167 c 0
 535 181 580 421 581 434 c 0
 583 448 582 470 579 482 c 0
 570 533 532 566 473 575 c 0
EndSplineSet
EndChar

StartChar: adieresis
Encoding: 228 228 102
Width: 703
Flags: HW
LayerCount: 2
Fore
SplineSet
394 705 m 0
 428 709 455 701 453 689 c 0
 451 685 442 678 433 673 c 0
 394 654 329 650 318 666 c 0
 315 670 317 674 323 679 c 0
 334 690 364 702 394 705 c 0
577 705 m 0
 611 709 637 701 635 689 c 0
 633 685 624 678 615 673 c 0
 576 654 512 650 501 666 c 0
 498 670 499 674 505 679 c 0
 516 690 547 702 577 705 c 0
456 618 m 0
 510 622 570 615 609 599 c 2
 617 596 l 1
 622 598 l 2
 652 615 715 619 722 605 c 0
 723 602 717 568 671 317 c 0
 643 160 618 31 617 28 c 0
 615 23 611 18 602 14 c 0
 574 1 529 -4 512 4 c 0
 506 7 505 10 506 19 c 2
 508 28 l 1
 508 28 502 26 496 23 c 0
 465 12 423 1 382 -3 c 0
 354 -5 307 -5 288 -2 c 0
 242 5 208 20 180 47 c 0
 160 69 146 93 137 128 c 0
 131 153 130 167 130 200 c 0
 129 236 132 260 141 307 c 0
 166 439 221 528 307 575 c 0
 348 598 404 614 456 618 c 0
473 575 m 0
 468 575 455 577 445 578 c 0
 422 578 418 576 398 566 c 0
 369 553 349 533 325 501 c 0
 287 451 262 381 249 288 c 0
 244 258 244 246 244 216 c 0
 244 192 244 185 246 173 c 0
 250 148 256 128 264 110 c 0
 286 67 328 39 375 37 c 0
 415 35 445 45 474 70 c 0
 501 92 522 128 532 167 c 0
 535 181 580 421 581 434 c 0
 583 448 582 470 579 482 c 0
 570 533 532 566 473 575 c 0
EndSplineSet
EndChar

StartChar: aring
Encoding: 229 229 103
Width: 703
Flags: HW
LayerCount: 2
Fore
SplineSet
500 828 m 0
 508 829 523 829 532 828 c 0
 579 822 602 799 600 757 c 0
 598 727 586 700 569 682 c 0
 552 666 531 655 500 649 c 0
 476 644 455 643 436 646 c 0
 413 649 400 655 389 666 c 0
 376 678 371 694 372 717 c 0
 374 752 389 783 414 801 c 0
 434 816 462 825 500 828 c 0
500 805 m 0
 492 807 481 806 476 804 c 0
 459 796 444 777 438 750 c 0
 427 708 439 677 470 669 c 0
 478 667 490 668 496 670 c 0
 513 678 528 697 534 724 c 0
 545 767 532 798 500 805 c 0
456 618 m 0
 510 622 570 615 609 599 c 2
 617 596 l 1
 622 598 l 2
 652 615 715 619 722 605 c 0
 723 602 717 568 671 317 c 0
 643 160 618 31 617 28 c 0
 615 23 611 18 602 14 c 0
 574 1 529 -4 512 4 c 0
 506 7 505 10 506 19 c 2
 508 28 l 1
 508 28 502 26 496 23 c 0
 465 12 423 1 382 -3 c 0
 354 -5 307 -5 288 -2 c 0
 242 5 208 20 180 47 c 0
 160 69 146 93 137 128 c 0
 131 153 130 167 130 200 c 0
 129 236 132 260 141 307 c 0
 166 439 221 528 307 575 c 0
 348 598 404 614 456 618 c 0
473 575 m 0
 468 575 455 577 445 578 c 0
 422 578 418 576 398 566 c 0
 369 553 349 533 325 501 c 0
 287 451 262 381 249 288 c 0
 244 258 244 246 244 216 c 0
 244 192 244 185 246 173 c 0
 250 148 256 128 264 110 c 0
 286 67 328 39 375 37 c 0
 415 35 445 45 474 70 c 0
 501 92 522 128 532 167 c 0
 535 181 580 421 581 434 c 0
 583 448 582 470 579 482 c 0
 570 533 532 566 473 575 c 0
EndSplineSet
EndChar

StartChar: ae
Encoding: 230 230 104
Width: 784
Flags: HW
LayerCount: 2
Fore
SplineSet
337 613 m 0
 339 614 355 614 373 613 c 0
 413 613 431 611 457 603 c 0
 479 596 494 586 508 572 c 2
 517 563 l 1
 522 567 l 2
 558 594 614 612 667 614 c 0
 725 616 769 597 794 558 c 0
 814 524 824 468 820 407 c 0
 818 379 811 323 808 313 c 0
 805 304 786 295 757 289 c 0
 748 287 745 287 624 286 c 2
 500 286 l 1
 500 283 l 2
 499 277 495 247 494 234 c 0
 492 215 492 166 494 151 c 0
 500 112 509 86 524 67 c 0
 534 54 549 43 562 39 c 0
 568 37 571 37 584 37 c 0
 599 38 606 39 616 44 c 0
 635 54 651 74 658 98 c 0
 661 109 664 113 672 118 c 0
 689 128 728 136 751 133 c 0
 765 131 773 127 773 121 c 0
 773 118 767 100 763 92 c 0
 750 64 723 42 687 26 c 0
 654 12 613 1 570 -3 c 0
 548 -5 504 -5 492 -3 c 0
 455 4 428 19 409 47 c 2
 403 54 l 1
 400 51 l 2
 398 49 391 44 385 40 c 0
 352 17 312 4 264 -3 c 0
 249 -5 197 -5 182 -3 c 0
 128 5 93 28 75 65 c 0
 59 97 54 137 63 189 c 0
 77 278 117 341 179 376 c 0
 204 390 236 402 269 409 c 0
 294 413 307 414 338 414 c 2
 368 415 l 1
 376 418 l 2
 395 426 409 439 418 457 c 0
 421 463 421 465 422 475 c 0
 423 495 418 517 410 531 c 0
 399 550 378 564 351 570 c 0
 339 572 293 572 281 570 c 0
 272 568 262 564 257 560 c 0
 251 555 244 546 243 541 c 0
 241 533 240 530 236 527 c 0
 228 520 211 513 191 509 c 0
 175 506 149 505 140 508 c 0
 132 511 128 514 128 519 c 0
 128 528 139 545 151 556 c 0
 182 585 246 607 317 612 c 0
 325 613 334 613 337 613 c 0
646 566 m 0
 635 571 633 572 627 568 c 0
 607 555 587 535 570 507 c 0
 561 494 546 461 540 447 c 0
 530 419 519 384 511 346 c 2
 507 328 l 1
 603 328 l 2
 694 328 699 328 699 330 c 0
 700 333 706 374 707 388 c 0
 711 447 701 501 683 531 c 0
 673 547 660 560 646 566 c 0
411 384 m 0
 411 387 410 387 396 383 c 0
 366 375 344 373 308 372 c 2
 280 372 l 1
 270 368 l 2
 237 353 207 312 191 264 c 0
 178 227 171 181 172 148 c 0
 174 98 192 63 227 47 c 0
 239 41 250 38 264 37 c 0
 273 37 275 37 280 40 c 0
 311 55 339 90 355 133 c 0
 360 146 367 169 371 185 c 0
 373 196 374 200 376 202 c 0
 378 205 379 207 380 218 c 0
 384 266 398 338 411 384 c 0
EndSplineSet
EndChar

StartChar: ccedilla
Encoding: 231 231 105
Width: 703
Flags: HW
LayerCount: 2
Fore
SplineSet
452 617 m 0
 460 618 477 620 490 620 c 0
 616 621 695 592 707 542 c 0
 709 535 709 524 708 519 c 0
 707 514 699 508 689 503 c 0
 672 496 650 490 628 490 c 0
 615 490 607 492 601 495 c 0
 595 498 595 499 595 509 c 0
 596 535 579 553 542 565 c 0
 519 573 496 577 457 578 c 0
 424 578 420 577 398 566 c 0
 369 553 349 533 325 501 c 0
 287 451 262 381 249 288 c 0
 244 258 244 246 244 216 c 0
 244 184 245 170 251 146 c 0
 265 90 300 53 351 40 c 0
 364 37 387 36 417 38 c 0
 441 39 457 42 472 46 c 0
 497 54 513 70 519 90 c 0
 522 101 526 105 539 111 c 0
 557 120 581 125 605 124 c 0
 620 123 628 121 632 117 c 0
 635 113 634 110 630 98 c 0
 621 73 594 50 556 34 c 0
 532 23 494 10 464 5 c 0
 456 4 454 3 455 2 c 0
 455 1 456 -3 457 -6 c 0
 461 -20 458 -38 451 -53 c 0
 436 -85 400 -106 348 -115 c 0
 329 -118 299 -119 290 -116 c 0
 283 -114 278 -109 278 -106 c 0
 278 -97 294 -87 319 -81 c 0
 329 -79 330 -78 334 -74 c 0
 342 -63 346 -48 345 -34 c 0
 344 -24 340 -13 333 -8 c 0
 329 -5 328 -5 315 -5 c 0
 257 -2 213 15 180 47 c 0
 160 69 146 93 137 128 c 0
 131 153 130 167 130 200 c 0
 129 236 132 260 141 307 c 0
 168 449 230 542 327 586 c 0
 366 603 409 614 452 617 c 0
EndSplineSet
EndChar

StartChar: odieresis
Encoding: 246 246 106
Width: 780
Flags: HW
LayerCount: 2
Fore
SplineSet
432 705 m 0
 466 709 492 701 490 689 c 0
 488 685 480 678 471 673 c 0
 432 654 367 650 356 666 c 0
 353 670 354 674 360 679 c 0
 371 690 402 702 432 705 c 0
614 705 m 0
 648 709 675 701 673 689 c 0
 671 685 662 678 653 673 c 0
 614 654 550 650 539 666 c 0
 536 670 537 674 543 679 c 0
 554 690 584 702 614 705 c 0
495 618 m 0
 506 619 558 618 572 617 c 0
 660 607 721 573 754 517 c 0
 781 470 788 410 777 334 c 0
 766 249 734 174 688 121 c 0
 635 59 556 18 456 2 c 0
 424 -3 406 -4 370 -4 c 0
 334 -4 318 -3 291 2 c 0
 202 18 146 62 122 135 c 0
 105 187 106 256 124 332 c 0
 154 452 219 535 319 579 c 0
 372 603 422 613 495 618 c 0
502 577 m 0
 490 578 466 578 456 577 c 0
 426 575 402 566 378 553 c 0
 303 512 250 428 231 316 c 0
 209 197 232 113 299 69 c 0
 332 47 379 36 426 37 c 0
 453 38 470 42 493 51 c 0
 559 77 613 140 642 225 c 0
 664 287 674 364 667 419 c 0
 655 511 596 567 502 577 c 0
EndSplineSet
EndChar

StartChar: oslash
Encoding: 248 248 107
Width: 780
Flags: HW
LayerCount: 2
Fore
SplineSet
495 618 m 0
 506 619 558 618 572 617 c 0
 607 613 642 604 666 594 c 2
 672 591 l 1
 676 594 l 2
 681 598 694 604 705 607 c 0
 745 618 785 615 782 600 c 0
 781 599 774 590 762 579 c 0
 752 568 740 556 737 553 c 2
 732 548 l 1
 738 540 l 2
 755 518 769 490 776 459 c 0
 790 393 779 296 746 218 c 0
 719 151 678 99 623 63 c 0
 570 27 500 5 420 -3 c 0
 395 -5 344 -5 321 -3 c 0
 285 1 253 9 229 19 c 2
 220 24 l 1
 216 20 l 2
 211 16 198 10 187 7 c 0
 147 -4 107 -1 110 14 c 0
 111 15 120 27 135 42 c 2
 160 67 l 1
 158 69 l 1
 135 99 124 121 116 156 c 0
 102 221 112 313 143 391 c 0
 184 496 259 564 372 597 c 0
 409 609 444 614 495 618 c 0
502 577 m 0
 490 578 466 578 456 577 c 0
 426 575 402 566 378 553 c 0
 303 512 250 428 231 316 c 0
 219 253 222 198 236 155 c 2
 238 146 l 1
 245 154 l 2
 249 159 333 245 432 346 c 0
 531 446 612 529 612 530 c 2
 612 530 609 534 605 537 c 0
 578 559 543 572 502 577 c 0
657 459 m 0
 656 463 654 466 654 466 c 2
 653 467 281 86 281 84 c 2
 281 84 283 81 287 78 c 0
 322 50 372 35 426 37 c 0
 453 38 470 42 493 51 c 0
 559 77 613 140 642 225 c 0
 671 307 676 400 657 459 c 0
EndSplineSet
EndChar

StartChar: udieresis
Encoding: 252 252 108
Width: 703
Flags: HW
LayerCount: 2
Fore
SplineSet
394 705 m 0
 428 709 455 701 453 689 c 0
 451 685 442 678 433 673 c 0
 394 654 329 650 318 666 c 0
 315 670 317 674 323 679 c 0
 334 690 364 702 394 705 c 0
577 705 m 0
 611 709 637 701 635 689 c 0
 633 685 624 678 615 673 c 0
 576 654 512 650 501 666 c 0
 498 670 499 674 505 679 c 0
 516 690 547 702 577 705 c 0
263 613 m 0
 279 615 295 613 303 610 c 0
 311 606 314 620 283 450 c 0
 255 302 251 275 249 244 c 0
 243 157 264 91 310 59 c 0
 326 49 348 40 365 38 c 0
 381 36 407 37 423 42 c 0
 474 55 517 106 532 167 c 0
 534 174 552 271 572 383 c 0
 596 515 610 587 611 589 c 0
 614 596 629 603 647 608 c 0
 679 617 717 615 722 605 c 0
 723 602 717 568 671 317 c 0
 643 160 618 31 617 28 c 0
 615 23 611 18 602 14 c 0
 574 1 529 -4 512 4 c 0
 506 7 505 10 506 19 c 2
 508 28 l 1
 508 28 502 26 495 23 c 0
 463 11 425 2 383 -3 c 0
 359 -5 309 -5 293 -3 c 0
 246 4 212 19 185 46 c 0
 168 63 155 83 146 112 c 0
 139 136 135 156 134 188 c 0
 134 210 135 232 139 262 c 0
 142 289 197 586 199 589 c 0
 205 599 235 611 263 613 c 0
EndSplineSet
EndChar

StartChar: OE
Encoding: 188 338 109
Width: 942
Flags: HW
LayerCount: 2
Fore
SplineSet
440 823 m 0
 480 827 534 821 567 809 c 2
 577 805 l 1
 582 808 l 2
 589 811 602 815 613 817 c 0
 622 818 635 819 813 819 c 0
 994 819 1004 818 1009 817 c 0
 1016 815 1021 810 1021 807 c 0
 1021 801 1003 789 985 784 c 0
 961 777 972 778 813 777 c 2
 668 777 l 1
 668 774 l 2
 666 768 605 433 605 432 c 0
 605 431 655 431 749 431 c 0
 883 431 893 430 898 429 c 0
 910 425 912 419 905 411 c 0
 897 404 881 397 858 392 c 0
 849 390 846 390 723 389 c 0
 653 389 597 389 597 388 c 2
 597 388 583 312 566 219 c 0
 550 127 536 49 535 46 c 2
 535 42 l 1
 698 42 l 2
 855 42 863 41 868 40 c 0
 874 38 880 33 880 30 c 0
 880 24 862 12 844 7 c 0
 820 0 835 1 626 1 c 0
 447 1 435 1 430 2 c 0
 427 3 423 5 421 6 c 0
 419 9 419 9 419 14 c 0
 419 19 419 19 417 18 c 0
 412 16 391 10 378 7 c 0
 343 -1 316 -4 279 -4 c 0
 249 -4 239 -3 221 2 c 0
 189 12 163 34 146 65 c 0
 120 111 111 191 118 278 c 0
 125 353 146 461 165 531 c 0
 189 613 223 686 262 732 c 0
 285 760 317 785 347 799 c 0
 375 811 408 820 440 823 c 0
451 779 m 0
 445 780 436 781 431 781 c 0
 423 782 422 782 417 778 c 0
 400 769 379 749 365 731 c 0
 331 688 301 623 279 548 c 0
 260 478 238 369 232 294 c 0
 226 226 232 162 246 118 c 0
 259 77 284 47 315 38 c 0
 322 36 339 37 349 40 c 0
 390 50 428 94 442 148 c 0
 445 162 533 640 534 654 c 0
 535 661 535 672 535 680 c 0
 533 722 516 752 483 768 c 0
 473 773 463 776 451 779 c 0
EndSplineSet
EndChar

StartChar: oe
Encoding: 189 339 110
Width: 784
Flags: HW
LayerCount: 2
Fore
SplineSet
346 618 m 0
 360 619 392 618 403 616 c 0
 432 612 455 601 473 583 c 0
 481 574 493 558 496 551 c 2
 497 548 l 1
 504 555 l 2
 539 587 586 608 640 616 c 0
 659 619 696 619 712 617 c 0
 741 611 763 601 781 583 c 0
 798 565 809 545 817 515 c 0
 825 482 828 448 825 407 c 0
 823 374 815 315 812 310 c 0
 806 302 788 294 762 289 c 0
 753 287 750 287 626 286 c 2
 500 286 l 1
 500 283 l 2
 499 281 498 270 497 259 c 0
 489 197 491 148 504 108 c 0
 514 77 531 55 554 43 c 0
 566 38 572 37 587 37 c 0
 604 38 610 39 621 44 c 0
 631 49 640 58 648 68 c 0
 655 78 660 86 664 98 c 0
 665 105 667 109 669 112 c 0
 686 129 748 140 771 129 c 0
 778 126 779 123 776 113 c 0
 767 83 748 57 718 39 c 0
 693 25 658 11 623 4 c 0
 590 -2 567 -4 531 -4 c 0
 500 -4 491 -3 473 2 c 0
 453 8 437 18 423 32 c 0
 415 41 403 56 400 63 c 2
 399 67 l 1
 392 59 l 2
 363 33 328 14 286 4 c 0
 260 -2 245 -4 218 -4 c 0
 192 -4 182 -3 165 2 c 0
 145 9 129 18 115 32 c 0
 96 52 83 77 76 114 c 0
 71 139 70 147 71 180 c 0
 71 212 72 226 77 263 c 0
 94 383 123 466 169 526 c 0
 177 537 199 559 210 567 c 0
 248 596 295 613 346 618 c 0
335 574 m 0
 332 575 329 577 328 577 c 2
 328 577 325 574 322 573 c 0
 280 547 242 489 218 411 c 0
 204 363 191 295 185 238 c 0
 183 220 183 171 185 157 c 0
 188 130 196 103 203 89 c 0
 214 66 234 48 253 40 c 0
 259 38 259 38 263 40 c 0
 268 42 279 50 287 57 c 0
 316 82 346 132 364 186 c 0
 380 235 395 309 402 374 c 0
 404 394 404 443 402 458 c 0
 399 485 392 511 385 525 c 0
 374 548 354 566 335 574 c 0
643 574 m 2
 637 577 l 1
 637 577 634 575 631 573 c 0
 613 562 593 543 578 520 c 0
 547 473 526 422 511 346 c 2
 507 328 l 1
 606 328 l 1
 705 328 l 1
 705 330 l 2
 707 336 711 375 712 392 c 0
 713 415 713 445 711 463 c 0
 707 487 700 512 693 525 c 0
 682 548 662 566 643 574 c 2
EndSplineSet
EndChar

StartChar: quotesingle
Encoding: 39 39 111
Width: 161
Flags: HW
LayerCount: 2
Fore
SplineSet
237 818 m 0
 243 819 266 818 271 817 c 0
 277 815 283 810 283 807 c 0
 283 805 255 651 253 644 c 0
 251 635 232 624 204 618 c 0
 187 615 161 614 152 617 c 0
 144 620 140 624 140 628 c 0
 140 630 148 668 155 712 c 2
 170 793 l 1
 174 797 l 2
 178 802 193 809 205 812 c 0
 213 815 224 817 237 818 c 0
EndSplineSet
EndChar

StartChar: grave
Encoding: 96 96 112
Width: 202
Flags: HW
LayerCount: 2
Fore
SplineSet
257 818 m 0
 264 819 281 819 289 817 c 0
 319 812 340 799 350 777 c 0
 360 758 364 726 361 691 c 0
 360 676 355 646 354 643 c 0
 353 641 351 638 349 637 c 0
 330 620 270 610 248 620 c 0
 241 624 241 624 244 646 c 0
 250 687 251 712 245 737 c 0
 240 761 226 775 208 778 c 0
 201 779 193 782 191 784 c 0
 186 790 193 799 208 806 c 0
 220 812 237 816 257 818 c 0
EndSplineSet
EndChar

StartChar: degree
Encoding: 176 176 113
Width: 574
Flags: HW
LayerCount: 2
Fore
SplineSet
423 818 m 0
 436 819 465 819 471 818 c 0
 479 817 486 813 488 810 c 0
 489 807 489 807 488 804 c 0
 483 795 462 784 435 779 c 0
 430 779 415 777 402 777 c 0
 388 776 374 775 369 775 c 0
 327 767 294 735 282 690 c 0
 280 682 280 678 280 665 c 0
 280 647 281 638 288 625 c 0
 299 601 324 585 360 578 c 0
 373 575 393 573 424 573 c 2
 450 573 l 1
 458 575 l 1
 476 585 l 2
 494 594 506 602 517 617 c 0
 528 632 534 644 540 667 c 0
 542 675 552 682 570 688 c 0
 584 693 598 695 614 696 c 0
 634 697 647 694 652 688 c 0
 654 684 652 678 647 663 c 0
 640 644 628 625 613 610 c 0
 572 567 486 534 403 530 c 0
 388 530 331 532 313 534 c 0
 261 539 220 552 195 575 c 0
 183 587 173 603 168 622 c 0
 166 630 166 633 166 647 c 0
 166 655 166 665 167 669 c 0
 171 686 178 705 189 720 c 0
 197 733 217 753 230 762 c 0
 275 794 344 814 423 818 c 0
EndSplineSet
EndChar
